<?xml version="1.0" encoding="utf-8"?>
<!-- Generator: Adobe Illustrator 27.2.0, SVG Export Plug-In . SVG Version: 6.00 Build 0)  -->
<svg version="1.1" id="Layer_1" xmlns="http://www.w3.org/2000/svg" xmlns:xlink="http://www.w3.org/1999/xlink" x="0px" y="0px"
	 viewBox="0 0 33 33" style="enable-background:new 0 0 33 33;" xml:space="preserve">
<style type="text/css">
	.st0{fill-rule:evenodd;clip-rule:evenodd;fill:#FFFFFF;}
	.st1{fill:#FFFFFF;}
</style>
<path class="st0" d="M25.6,8.2h-3.4c-0.3-0.5-0.6-0.9-1-1.3S20.4,6.2,20,5.8l2-2l-1.7-1.7l-2.7,2.6c-0.5-0.2-1-0.2-1.7-0.2
	s-1.2,0.1-1.7,0.2l-2.6-2.6L10,3.8l1.9,2c-0.5,0.3-0.9,0.7-1.2,1.1s-0.7,0.8-1,1.3H6.4v2.5h2.5c-0.1,0.4-0.1,0.7-0.1,1.1
	c0,0.4,0,0.8,0,1.4H6.4v2.5h2.4l0,0c0.7-0.3,1.5-0.6,2.3-0.8c0.5-0.1,1-0.2,1.4-0.2c0.2,0,0.3,0,0.4,0h0.9l0.7,0.8
	c0.5,0,1.1-0.1,1.6-0.1c0.5,0,1,0,1.6,0.1l0.4-0.5v-0.3h1h1v0.1c0.3,0,0.7,0.1,1,0.2c0.8,0.2,1.5,0.4,2.3,0.8l0,0h2.4v-2.5h-2.4
	c0-0.5,0-1,0-1.3s0-0.7-0.1-1.2h2.5V8.2H25.6z M18.8,13.1h-5.5v-1.4h5.5V13.1z M18.8,10.3h-5.5V8.9h5.5V10.3z M25.2,18.5
	c-0.1-0.2-0.2-0.4-0.3-0.5h-1.8c0.1-0.5,0.1-0.9,0.1-1.2v-0.1c-0.9-0.5-1.8-0.8-2.5-0.9c-0.5-0.1-0.9-0.2-1.2-0.2
	c-0.1,0-0.3,0-0.4,0h-0.4l-0.1,0.2L18.4,16L18,16.4c-0.1,0-0.1,0-0.2,0c-0.6-0.1-1.2-0.1-1.8-0.1c-0.7,0-1.3,0-2,0.1l-0.4-0.5
	l-0.2-0.2l-0.1-0.2h-0.2l0,0H13c-0.1,0-0.2,0-0.4,0c-0.3,0-0.7,0.1-1.2,0.2c-0.7,0.2-1.6,0.4-2.5,0.9v0.1c0,0.3,0,0.7,0.1,1.2H7.1
	C7,18,6.9,18.2,6.8,18.4c-0.1,0.3-0.3,0.6-0.5,1v0.9h3.4c0.7,1.1,1.5,2,2.6,2.6c0.1,0,0.1,0.1,0.2,0.1c0.3,0.2,0.6,0.3,0.9,0.4
	c0.8,0.3,1.6,0.5,2.5,0.5c0.8,0,1.6-0.1,2.3-0.4c0.4-0.1,0.8-0.3,1.1-0.5c0.1,0,0.1-0.1,0.2-0.1c1.1-0.7,2-1.5,2.6-2.6h3.4v-0.9
	C25.5,19.1,25.3,18.8,25.2,18.5z"/>
<g>
	<path class="st1" d="M26.1,20.8c-0.2-0.5-0.3-0.9-0.5-1.2c-0.2-0.4-0.3-0.8-0.5-1c-0.1-0.2-0.2-0.4-0.3-0.5c0,0,0-0.1-0.1-0.1
		c0-0.1-0.1-0.1-0.1-0.2l0,0l0,0l0,0l-0.1-0.1l-0.1-0.1c-0.5-0.3-0.9-0.6-1.4-0.8c-0.9-0.5-1.8-0.8-2.5-0.9
		c-0.5-0.1-0.9-0.2-1.2-0.2c-0.1,0-0.3,0-0.4,0h-0.4l-0.1,0.2V16L18,16.4c-0.1,0-0.1,0-0.2,0c-0.6-0.1-1.2-0.1-1.8-0.1
		c-0.7,0-1.3,0-2,0.1l-0.4-0.5l-0.2-0.2l-0.1-0.2h-0.2l0,0H13c-0.1,0-0.2,0-0.4,0c-0.3,0-0.7,0.1-1.2,0.2c-0.7,0.2-1.6,0.4-2.5,0.9
		c-0.5,0.2-0.9,0.5-1.4,0.8l-0.1,0.1l-0.1,0.1l0,0l0,0c0,0-0.1,0.1-0.1,0.2c0,0,0,0.1-0.1,0.1C7,18,6.9,18.2,6.8,18.4
		c-0.1,0.3-0.3,0.6-0.5,1S6,20.2,5.8,20.6c-0.7,1.9-1.4,4.6-1.4,7.5v0.1l0.1,0.1l0,0l0,0l0,0l0,0c0,0,0,0.1,0.1,0.1
		c0.1,0.1,0.2,0.2,0.3,0.3c0.2,0.3,0.6,0.6,1.1,1c1,0.7,2.5,1.4,4.7,1.5H11l0.2-0.2l0,0l0,0l0.1-0.1c0.1-0.1,0.2-0.2,0.3-0.3
		c0.2-0.3,0.6-0.7,0.8-1l0.3-0.3c0.3,0.1,0.6,0.1,0.9,0.2l0,0c1.7,0.3,3.4,0.3,5.1,0c0.3,0,0.5-0.1,0.8-0.1l0.2,0.3
		c0.3,0.3,0.6,0.7,0.8,1c0.1,0.1,0.2,0.3,0.3,0.3l0.1,0.1l0,0l0,0l0.2,0.2h0.2c2.2-0.1,3.7-0.8,4.7-1.5c0.5-0.4,0.9-0.7,1.1-1
		c0.1-0.1,0.2-0.2,0.3-0.3l0.1-0.1l0,0l0,0c0,0,0,0,0-0.1v-0.1l0,0C27.5,25.3,26.8,22.7,26.1,20.8z M13.9,24.7
		c0,0.8-0.6,1.5-1.4,1.5c-0.8,0-1.4-0.7-1.4-1.5s0.6-1.5,1.4-1.5h0.1c0.4,0,0.7,0.2,0.9,0.4S13.9,24.2,13.9,24.7L13.9,24.7z
		 M19.4,26.1c-0.8,0-1.4-0.7-1.4-1.5c0-0.4,0.1-0.7,0.3-1c0.2-0.3,0.6-0.5,1.1-0.5c0,0,0,0,0.1,0c0.8,0,1.4,0.7,1.4,1.5
		C20.8,25.5,20.1,26.1,19.4,26.1z"/>
</g>
</svg>
