<svg width="28" height="27" viewBox="0 0 28 27" fill="none" xmlns="http://www.w3.org/2000/svg">
<g clip-path="url(#clip0_1709_59270)">
<path d="M12.3767 0.908813C13.3206 0.348563 14.4952 0.348563 15.4391 0.908813L19.6733 3.42194L23.9668 5.8323C24.924 6.36964 25.5112 7.38682 25.498 8.48441L25.4387 13.4079L25.498 18.3314C25.5112 19.429 24.924 20.4462 23.9668 20.9835L19.6733 23.3939L15.4391 25.907C14.4952 26.4672 13.3206 26.4672 12.3767 25.907L8.1425 23.3939L3.84897 20.9835C2.89182 20.4462 2.30455 19.429 2.31777 18.3314L2.37711 13.4079L2.31777 8.48441C2.30455 7.38682 2.89182 6.36964 3.84897 5.8323L8.1425 3.42194L12.3767 0.908813Z" fill="#F8FAFC"/>
<g filter="url(#filter0_i_1709_59270)">
<path d="M12.3766 1.81671C13.3206 1.25646 14.4951 1.25646 15.439 1.81671L19.2828 4.09813L23.1805 6.28625C24.1377 6.82359 24.7249 7.84077 24.7117 8.93836L24.6578 13.4079L24.7117 17.8774C24.7249 18.975 24.1377 19.9922 23.1805 20.5295L19.2828 22.7177L15.439 24.9991C14.4951 25.5593 13.3206 25.5593 12.3766 24.9991L8.53284 22.7177L4.63517 20.5295C3.67802 19.9922 3.09075 18.975 3.10398 17.8774L3.15784 13.4079L3.10398 8.93836C3.09075 7.84077 3.67802 6.82359 4.63517 6.28625L8.53284 4.09813L12.3766 1.81671Z" fill="#038F5F"/>
</g>
<g filter="url(#filter1_i_1709_59270)">
<path d="M12.3766 3.02435C13.3206 2.4641 14.4951 2.4641 15.439 3.02435L18.7635 4.99755L22.1346 6.89007C23.0918 7.42741 23.6791 8.44459 23.6658 9.54218L23.6193 13.4079L23.6658 17.2736C23.6791 18.3712 23.0918 19.3884 22.1346 19.9257L18.7635 21.8182L15.439 23.7914C14.4951 24.3517 13.3206 24.3517 12.3766 23.7914L9.05212 21.8182L5.68102 19.9257C4.72387 19.3884 4.1366 18.3712 4.14982 17.2736L4.19641 13.4079L4.14982 9.54218C4.1366 8.44459 4.72387 7.42741 5.68102 6.89007L9.05212 4.99755L12.3766 3.02435Z" fill="#02B478"/>
</g>
<g filter="url(#filter2_d_1709_59270)">
<mask id="mask0_1709_59270" style="mask-type:alpha" maskUnits="userSpaceOnUse" x="7" y="7" width="13" height="13">
<rect x="7.91541" y="7.41541" width="11.985" height="11.985" fill="#D9D9D9"/>
</mask>
<g mask="url(#mask0_1709_59270)">
<path d="M14.0369 16.5216C14.6573 16.2833 15.1817 16.0347 15.6095 15.7757L15.6095 15.7757C16.0328 15.5191 16.4991 15.1777 17.0084 14.7519L17.1232 15.3489L17.1232 15.3491L14.0369 16.5216ZM14.0369 16.5216L14.5234 17.6527L14.5237 17.6535L14.5237 17.6535C14.5864 17.8101 14.6984 17.9027 14.8626 17.934C15.0273 17.9654 15.1666 17.9227 15.2841 17.8053L16.8571 16.2322C16.9699 16.1194 17.0506 15.9846 17.099 15.8272L14.0369 16.5216ZM10.9566 13.4412L9.82542 12.9547L9.82542 12.9547L9.82468 12.9544C9.66822 12.8918 9.57792 12.7801 9.55077 12.6163L9.55076 12.6162C9.52312 12.4514 9.56769 12.3117 9.68536 12.194L11.2584 10.621C11.3713 10.5081 11.5043 10.4275 11.6577 10.379C11.8106 10.3307 11.9675 10.3226 12.1289 10.3549C12.1289 10.3549 12.129 10.3549 12.129 10.3549L12.7269 10.4814C12.3008 10.9909 11.9594 11.4554 11.703 11.875C11.4436 12.2987 11.1949 12.8209 10.9566 13.4412ZM18.3136 8.64512L18.3136 8.64515H18.3149C18.3761 8.64515 18.4379 8.66041 18.5007 8.69179C18.5644 8.72366 18.6199 8.76334 18.6674 8.81078C18.7148 8.85822 18.7545 8.9137 18.7863 8.97744C18.8177 9.0402 18.833 9.10203 18.833 9.16321L18.833 9.16456C18.8661 9.9331 18.703 10.7315 18.3427 11.5602C17.9821 12.3888 17.4745 13.1305 16.8197 13.7853C16.3714 14.2336 15.9403 14.592 15.5264 14.8608L15.5264 14.8608C15.1122 15.1302 14.6229 15.3854 14.0585 15.6261C13.9539 15.6663 13.8477 15.6863 13.7397 15.6863C13.6358 15.6863 13.5458 15.6482 13.4681 15.5706L11.9076 14.01C11.8299 13.9323 11.7919 13.8423 11.7919 13.7385C11.7919 13.6305 11.8119 13.5243 11.852 13.4197C12.0927 12.8636 12.3479 12.3763 12.6174 11.9576L12.6174 11.9576C12.8862 11.5398 13.2446 11.1067 13.6928 10.6585C14.3476 10.0037 15.0893 9.49605 15.9179 9.13544C16.7466 8.77513 17.545 8.61207 18.3136 8.64512ZM15.1218 12.3563C15.3193 12.5538 15.5625 12.6526 15.8495 12.6526C16.1362 12.6526 16.3792 12.5538 16.5767 12.3563C16.7742 12.1589 16.873 11.9156 16.873 11.6286C16.873 11.342 16.7742 11.0989 16.5767 10.9014C16.3792 10.7039 16.1362 10.6051 15.8495 10.6051C15.5625 10.6051 15.3193 10.7039 15.1218 10.9014C14.9243 11.0989 14.8255 11.342 14.8255 11.6286C14.8255 11.9156 14.9243 12.1589 15.1218 12.3563ZM9.96001 15.4525C10.2455 15.167 10.5913 15.0224 10.9994 15.0182C11.4072 15.0143 11.7529 15.1547 12.0382 15.44C12.3235 15.7254 12.466 16.0711 12.466 16.479C12.466 16.887 12.3235 17.2327 12.0382 17.5181C11.8354 17.7208 11.4938 17.8979 11.0089 18.0472C10.5319 18.1939 9.87522 18.3249 9.03812 18.44C9.15321 17.603 9.28424 16.9485 9.43093 16.4758C9.58018 15.9949 9.75724 15.6552 9.96001 15.4525Z" fill="white" stroke="#1BECA5" stroke-width="0.0625"/>
</g>
</g>
</g>
<defs>
<filter id="filter0_i_1709_59270" x="3.10376" y="0.64653" width="21.6082" height="24.7727" filterUnits="userSpaceOnUse" color-interpolation-filters="sRGB">
<feFlood flood-opacity="0" result="BackgroundImageFix"/>
<feBlend mode="normal" in="SourceGraphic" in2="BackgroundImageFix" result="shape"/>
<feColorMatrix in="SourceAlpha" type="matrix" values="0 0 0 0 0 0 0 0 0 0 0 0 0 0 0 0 0 0 127 0" result="hardAlpha"/>
<feOffset dy="-1"/>
<feGaussianBlur stdDeviation="0.375"/>
<feComposite in2="hardAlpha" operator="arithmetic" k2="-1" k3="1"/>
<feColorMatrix type="matrix" values="0 0 0 0 0 0 0 0 0 0 0 0 0 0 0 0 0 0 0.2 0"/>
<feBlend mode="normal" in2="shape" result="effect1_innerShadow_1709_59270"/>
</filter>
<filter id="filter1_i_1709_59270" x="4.1496" y="2.60417" width="19.5165" height="22.6074" filterUnits="userSpaceOnUse" color-interpolation-filters="sRGB">
<feFlood flood-opacity="0" result="BackgroundImageFix"/>
<feBlend mode="normal" in="SourceGraphic" in2="BackgroundImageFix" result="shape"/>
<feColorMatrix in="SourceAlpha" type="matrix" values="0 0 0 0 0 0 0 0 0 0 0 0 0 0 0 0 0 0 127 0" result="hardAlpha"/>
<feOffset dy="1"/>
<feGaussianBlur stdDeviation="0.5"/>
<feComposite in2="hardAlpha" operator="arithmetic" k2="-1" k3="1"/>
<feColorMatrix type="matrix" values="0 0 0 0 0.0117647 0 0 0 0 0.560784 0 0 0 0 0.372549 0 0 0 0.65 0"/>
<feBlend mode="normal" in2="shape" result="effect1_innerShadow_1709_59270"/>
</filter>
<filter id="filter2_d_1709_59270" x="6.00159" y="5.6097" width="15.8669" height="15.8669" filterUnits="userSpaceOnUse" color-interpolation-filters="sRGB">
<feFlood flood-opacity="0" result="BackgroundImageFix"/>
<feColorMatrix in="SourceAlpha" type="matrix" values="0 0 0 0 0 0 0 0 0 0 0 0 0 0 0 0 0 0 127 0" result="hardAlpha"/>
<feOffset/>
<feGaussianBlur stdDeviation="1.5"/>
<feComposite in2="hardAlpha" operator="out"/>
<feColorMatrix type="matrix" values="0 0 0 0 0.0210938 0 0 0 0 0.3375 0 0 0 0 0.229018 0 0 0 0.8 0"/>
<feBlend mode="normal" in2="BackgroundImageFix" result="effect1_dropShadow_1709_59270"/>
<feBlend mode="normal" in="SourceGraphic" in2="effect1_dropShadow_1709_59270" result="shape"/>
</filter>
<clipPath id="clip0_1709_59270">
<rect width="26.8158" height="26.8158" fill="white" transform="translate(0.5)"/>
</clipPath>
</defs>
</svg>
