<svg width="27" height="28" viewBox="0 0 27 28" fill="none" xmlns="http://www.w3.org/2000/svg">
<path d="M10.7921 0.63707L10.7921 0.637086L10.7954 0.634966C11.0562 0.463154 11.3046 0.383271 11.5449 0.375614C11.7858 0.367942 12.0445 0.431985 12.3266 0.588546C12.6098 0.745763 12.8049 0.932147 12.9307 1.14161C13.0561 1.35049 13.125 1.60281 13.125 1.91158V4.03126C13.125 5.05648 13.4966 5.93011 14.2337 6.62722C14.9681 7.32173 15.8705 7.66732 16.9172 7.66732C17.4506 7.66732 17.9618 7.5532 18.4471 7.3263C18.932 7.0996 19.3595 6.77555 19.729 6.35904L19.7291 6.35918L19.7373 6.34933C19.906 6.1456 20.1168 6.02055 20.3844 5.96883C20.63 5.92139 20.8578 5.96913 21.0891 6.13167L21.0917 6.13347C22.8141 7.32226 24.1659 8.83941 25.1502 10.6888C26.134 12.5371 26.625 14.5011 26.625 16.5863C26.625 18.911 26.0382 21.0235 24.8663 22.9326C23.9761 24.3829 22.8763 25.6006 21.5654 26.588C21.687 26.3255 21.7956 26.0556 21.8912 25.7784C22.1728 24.9622 22.3125 24.0986 22.3125 23.1899C22.3125 22.0529 22.0915 20.9757 21.6483 19.9621C21.206 18.9507 20.5725 18.0477 19.7512 17.2542L19.7483 17.2514L13.7577 11.5853L13.4991 11.3408L13.2414 11.5863L7.29291 17.2523L7.29099 17.2542C6.44378 18.0728 5.79567 18.9816 5.35252 19.9807C4.90846 20.9818 4.6875 22.0529 4.6875 23.1899C4.6875 24.0986 4.82721 24.9622 5.10878 25.7784C5.20442 26.0556 5.31304 26.3255 5.43464 26.588C4.12374 25.6006 3.02385 24.3829 2.13366 22.9326C0.961799 21.0235 0.375 18.911 0.375 16.5863C0.375 13.5973 1.29074 10.7202 3.13857 7.94874C4.99036 5.17137 7.53825 2.73309 10.7921 0.63707ZM10.1746 20.0763L13.5 16.9388L16.8254 20.0763C16.8258 20.0768 16.8263 20.0772 16.8268 20.0777C17.2718 20.508 17.608 20.9845 17.84 21.5077C18.071 22.0283 18.1875 22.5877 18.1875 23.1899C18.1875 24.4165 17.7391 25.4537 16.8273 26.3221C15.9153 27.1908 14.8136 27.625 13.5 27.625C12.1864 27.625 11.0847 27.1908 10.1727 26.3221C9.26087 25.4537 8.8125 24.4165 8.8125 23.1899C8.8125 22.6172 8.92815 22.0632 9.16128 21.5251C9.39365 20.9887 9.72965 20.5066 10.1731 20.0778C10.1736 20.0773 10.1741 20.0768 10.1746 20.0763Z" fill="#1E90FF" stroke="#1EAEFF" stroke-width="0.75"/>
</svg>
