<svg width="29" height="28" viewBox="0 0 29 28" fill="none" xmlns="http://www.w3.org/2000/svg">
<mask id="mask0_71_1650" style="mask-type:alpha" maskUnits="userSpaceOnUse" x="0" y="0" width="29" height="28">
<rect x="0.368408" width="28" height="28" fill="#D9D9D9"/>
</mask>
<g mask="url(#mask0_71_1650)">
<path d="M12.0927 0.531985L12.0927 0.531996L12.0948 0.530582C12.3718 0.348102 12.6423 0.259179 12.9092 0.250678C13.1764 0.242166 13.4573 0.313735 13.7555 0.479254C14.0545 0.64521 14.2671 0.845897 14.406 1.07725C14.5448 1.30823 14.6182 1.58344 14.6182 1.91158V4.03126C14.6182 5.02273 14.9761 5.86331 15.6879 6.5364C16.3978 7.20775 17.2689 7.54232 18.2854 7.54232C18.8004 7.54232 19.2935 7.43227 19.7624 7.21306C20.231 6.99399 20.6449 6.68058 21.0037 6.27609L21.0038 6.27618L21.0092 6.26962C21.1967 6.04321 21.4333 5.90323 21.7289 5.8461C22.0098 5.79183 22.2719 5.84856 22.5292 6.02939L22.5309 6.03059C24.2698 7.23075 25.6351 8.76305 26.6288 10.6301C27.6221 12.4963 28.1182 14.4806 28.1182 16.5863C28.1182 18.9333 27.5255 21.0685 26.3411 22.998C25.3503 24.6121 24.1014 25.9416 22.5932 26.9883C22.8084 26.59 22.9911 26.1731 23.1413 25.7376C23.4181 24.9353 23.5557 24.0856 23.5557 23.1899C23.5557 22.0696 23.3381 21.0095 22.902 20.0122C22.4665 19.0163 21.8426 18.1267 21.0326 17.3441L21.0306 17.3422L15.04 11.6762L14.8676 11.5131L14.6958 11.6768L8.74735 17.3428L8.74607 17.3441C7.90939 18.1525 7.27107 19.0482 6.83501 20.0313C6.39834 21.0158 6.18073 22.0696 6.18073 23.1899C6.18073 24.0856 6.3184 24.9353 6.59517 25.7376C6.74539 26.1731 6.92808 26.59 7.14322 26.9883C5.63504 25.9416 4.38614 24.6121 3.39535 22.998C2.21099 21.0685 1.61823 18.9333 1.61823 16.5863C1.61823 13.57 2.54278 10.6691 4.40279 7.8794C6.26544 5.08574 8.82654 2.63589 12.0927 0.531985ZM11.456 19.9864L14.8682 16.767L18.2804 19.9864C18.2808 19.9867 18.2811 19.9871 18.2815 19.9874C18.7375 20.4282 19.0835 20.918 19.3225 21.457C19.5608 21.9943 19.6807 22.5711 19.6807 23.1899C19.6807 24.4515 19.2177 25.5212 18.2817 26.4126C17.3456 27.3043 16.2127 27.75 14.8682 27.75C13.5237 27.75 12.3908 27.3043 11.4547 26.4126C10.5187 25.5212 10.0557 24.4515 10.0557 23.1899C10.0557 22.5998 10.175 22.0289 10.4148 21.4754C10.6541 20.923 11 20.4273 11.455 19.9874C11.4553 19.987 11.4557 19.9867 11.456 19.9864Z" fill="#262A2F" stroke="#0085EA" stroke-width="0.5"/>
</g>
</svg>
