<svg width="29" height="28" viewBox="0 0 29 28" fill="none" xmlns="http://www.w3.org/2000/svg">
<mask id="mask0_71_1647" style="mask-type:alpha" maskUnits="userSpaceOnUse" x="0" y="0" width="29" height="28">
<rect x="0.78949" width="28" height="28" fill="#D9D9D9"/>
</mask>
<g mask="url(#mask0_71_1647)">
<path d="M1.78931 16.5863C1.78931 13.5155 2.73149 10.567 4.61587 7.74071C6.50024 4.91446 9.08774 2.4415 12.3784 0.321814C12.9971 -0.0858172 13.637 -0.106199 14.2979 0.26067C14.9588 0.627538 15.2893 1.17784 15.2893 1.91158V4.03126C15.2893 4.95523 15.6198 5.72973 16.2807 6.35476C16.9417 6.9798 17.7502 7.29231 18.7065 7.29231C19.1846 7.29231 19.6417 7.19041 20.0776 6.98659C20.5135 6.78278 20.9002 6.49064 21.2377 6.11018C21.4627 5.83843 21.751 5.66858 22.1026 5.60064C22.4542 5.5327 22.7846 5.60744 23.094 5.82484C24.8659 7.04774 26.2581 8.61032 27.2706 10.5126C28.2831 12.4149 28.7893 14.4395 28.7893 16.5863C28.7893 18.9778 28.1846 21.1586 26.9752 23.1288C25.7659 25.099 24.1768 26.6548 22.2081 27.7962C22.6862 27.144 23.0588 26.4306 23.326 25.6561C23.5932 24.8816 23.7268 24.0596 23.7268 23.1899C23.7268 22.1029 23.5159 21.0771 23.094 20.1123C22.6721 19.1476 22.0674 18.2848 21.2799 17.5239L15.2893 11.8578L9.34087 17.5239C8.52524 18.312 7.90649 19.1816 7.48462 20.1327C7.06274 21.0839 6.85181 22.1029 6.85181 23.1899C6.85181 24.0596 6.9854 24.8816 7.25259 25.6561C7.51978 26.4306 7.89243 27.144 8.37056 27.7962C6.40181 26.6548 4.81274 25.099 3.60337 23.1288C2.39399 21.1586 1.78931 18.9778 1.78931 16.5863ZM15.2893 16.4233L18.8752 19.8066C19.3534 20.2686 19.719 20.7849 19.9721 21.3556C20.2252 21.9263 20.3518 22.5377 20.3518 23.1899C20.3518 24.5215 19.8596 25.6561 18.8752 26.5937C17.8909 27.5312 16.6956 28 15.2893 28C13.8831 28 12.6877 27.5312 11.7034 26.5937C10.719 25.6561 10.2268 24.5215 10.2268 23.1899C10.2268 22.5649 10.3534 21.9603 10.6065 21.376C10.8596 20.7917 11.2252 20.2686 11.7034 19.8066L15.2893 16.4233Z" fill="#262A2F"/>
</g>
</svg>
