<svg width="70" height="40" viewBox="0 0 70 40" fill="none" xmlns="http://www.w3.org/2000/svg">
<g clip-path="url(#clip0_1586_46198)">
<path d="M38.8823 19.4782C38.8857 19.7674 38.9671 20.0502 39.1179 20.2969C39.2688 20.5436 39.4835 20.745 39.7393 20.8797C40.3883 21.2494 41.084 21.5302 41.8078 21.7146C42.6155 21.9134 43.4232 22.152 44.231 22.4303C45.0349 22.6861 45.7515 23.1611 46.3 23.802C46.8894 24.4884 47.1958 25.3732 47.1569 26.277C47.1754 26.9046 47.0428 27.5275 46.7703 28.0931C46.4977 28.6587 46.0932 29.1505 45.5908 29.527C44.4514 30.3793 43.0523 30.8113 41.6308 30.7496C40.3341 30.787 39.0534 30.4561 37.937 29.7954C36.9543 29.208 36.1874 28.3192 35.75 27.2611L37.9663 25.9788C38.195 26.6848 38.6661 27.287 39.2963 27.6788C39.997 28.1103 40.8083 28.3279 41.6308 28.305C42.3599 28.3329 43.0835 28.1684 43.7289 27.8279C43.9955 27.6699 44.2136 27.4417 44.3595 27.1683C44.5053 26.8949 44.5734 26.5867 44.5563 26.2772C44.5548 25.9916 44.4738 25.712 44.3225 25.4698C44.1711 25.2275 43.9554 25.0321 43.6993 24.9055C43.0584 24.5193 42.3602 24.2375 41.6308 24.0706C40.8231 23.852 40.0154 23.6035 39.2077 23.3251C38.4113 23.0543 37.6986 22.5817 37.1392 21.9534C36.5531 21.2769 36.2467 20.4026 36.2822 19.5082C36.269 18.899 36.3953 18.2948 36.6514 17.7418C36.9075 17.1888 37.2866 16.7016 37.7597 16.3175C38.8199 15.4633 40.1519 15.0188 41.5126 15.065C42.6331 15.0436 43.7377 15.3326 44.7041 15.9C45.631 16.4168 46.3744 17.2087 46.8317 18.1663L44.6745 19.3889C44.423 18.7728 43.9795 18.2543 43.4098 17.9104C42.8401 17.5665 42.1746 17.4155 41.5123 17.48C40.8509 17.4603 40.1999 17.648 39.6506 18.0168C39.4051 18.1711 39.2048 18.3875 39.0698 18.6442C38.9349 18.9008 38.8702 19.1886 38.8823 19.4782Z" fill="#ffffff"/>
<path d="M60.2512 15.4524H62.8221V30.3624H60.2512V28.2154C59.7597 29.0338 59.0541 29.7024 58.2104 30.149C57.3668 30.5957 56.4172 30.8035 55.4641 30.7499C54.6933 30.7845 53.924 30.6563 53.2061 30.3737C52.4882 30.0912 51.8379 29.6605 51.2975 29.1099C50.2073 27.8711 49.6452 26.255 49.7313 24.6071V15.4524H52.3022V24.4579C52.2392 25.4941 52.5899 26.5129 53.2774 27.2908C53.6349 27.6293 54.0579 27.8912 54.5203 28.0604C54.9827 28.2296 55.4748 28.3026 55.9664 28.2749C56.5377 28.2992 57.1079 28.2058 57.6416 28.0006C58.1754 27.7955 58.6612 27.4828 59.0692 27.0821C59.9349 26.0417 60.3592 24.7038 60.2512 23.3546V15.4524Z" fill="#ffffff"/>
<path d="M68.0365 12.7389C67.6935 12.7412 67.3576 12.6415 67.0713 12.4527C66.785 12.2638 66.5613 11.9942 66.4283 11.678C66.2954 11.3619 66.2594 11.0133 66.3247 10.6767C66.39 10.34 66.5539 10.0302 66.7954 9.78675C66.9519 9.6138 67.1437 9.47641 67.3577 9.38383C67.5718 9.29125 67.8033 9.24563 68.0365 9.25005C68.265 9.24778 68.4914 9.29451 68.7004 9.38709C68.9094 9.47967 69.0961 9.61595 69.248 9.78675C69.5699 10.1123 69.7504 10.5516 69.7504 11.0094C69.7504 11.4672 69.5699 11.9065 69.248 12.232C69.0917 12.3953 68.9035 12.5245 68.6951 12.6117C68.4866 12.699 68.2624 12.7423 68.0365 12.7389ZM66.7365 30.3623V15.4523H69.3073V30.3623H66.7365Z" fill="#ffffff"/>
<path fill-rule="evenodd" clip-rule="evenodd" d="M2.11117 33.0541C3.29928 35.1618 5.02635 36.9157 7.11545 38.1362C9.20455 39.3568 11.5806 40 14.0001 40C16.4196 40 18.7956 39.3568 20.8847 38.1362C22.9738 36.9157 24.7009 35.1618 25.889 33.0541C27.1082 30.9424 27.7501 28.547 27.7501 26.1086C27.7501 23.6702 27.1082 21.2748 25.889 19.1632L15.4325 0.83676C15.2893 0.582845 15.0812 0.37155 14.8295 0.224517C14.5778 0.0774847 14.2916 0 14.0001 0C13.7086 0 13.4223 0.0774847 13.1706 0.224517C12.9189 0.37155 12.7108 0.582845 12.5677 0.83676L2.11117 19.1632C0.891898 21.2748 0.25 23.6702 0.25 26.1086C0.25 28.547 0.891898 30.9424 2.11117 33.0541ZM11.0545 9.55546L13.2839 5.64796C13.3555 5.521 13.4595 5.41536 13.5853 5.34184C13.7112 5.26832 13.8543 5.22958 14.0001 5.22958C14.1458 5.22958 14.2889 5.26832 14.4148 5.34184C14.5406 5.41536 14.6447 5.521 14.7163 5.64796L23.2931 20.68C24.063 22.0128 24.5403 23.4942 24.6933 25.0258C24.8463 26.5574 24.6714 28.104 24.1804 29.5628C24.0737 29.0655 23.9269 28.5777 23.7416 28.1042C22.5569 25.0788 19.8782 22.7442 15.7783 21.1649C12.9596 20.083 11.1603 18.4918 10.4292 16.4349C9.48757 13.7848 10.4711 10.8942 11.0545 9.55546ZM7.25287 16.2184L4.70707 20.68C3.75393 22.3306 3.25214 24.203 3.25214 26.1091C3.25214 28.0151 3.75393 29.8875 4.70707 31.5382C5.47754 32.903 6.53905 34.0816 7.81622 34.9901C9.09339 35.8986 10.5549 36.5148 12.097 36.7949C13.6391 37.0751 15.224 37.0123 16.7391 36.611C18.2542 36.2098 19.6624 35.4799 20.8637 34.4732C21.5275 32.776 21.5512 30.8952 20.9304 29.1819C20.0604 26.9961 17.9658 25.2511 14.7052 23.9943C11.0195 22.5796 8.62517 20.371 7.58947 17.4318C7.44997 17.0354 7.33752 16.63 7.25287 16.2184Z" fill="#ffffff"/>
</g>
<defs>
<clipPath id="clip0_1586_46198">
<rect width="69.5" height="40" fill="white" transform="translate(0.25)"/>
</clipPath>
</defs>
</svg>
