<svg version="1.0" xmlns="http://www.w3.org/2000/svg"
 width="64.000000pt" height="64.000000pt" viewBox="0 0 64.000000 64.000000"
 preserveAspectRatio="xMidYMid meet">

<g transform="translate(0.000000,64.000000) scale(0.100000,-0.100000)"
fill="#ffffff" stroke="none">
<path d="M232 561 c-78 -27 -141 -94 -166 -176 -5 -18 -1 -20 37 -20 28 0 53
-8 74 -23 40 -28 49 -28 102 8 69 47 122 40 188 -23 30 -28 31 -31 16 -54
l-16 -23 -42 35 c-52 42 -75 44 -120 9 -51 -38 -101 -42 -148 -10 -73 50 -109
27 -82 -53 24 -73 37 -79 82 -42 47 39 90 40 150 5 l44 -26 38 26 c43 30 95
34 129 10 22 -15 23 -14 37 20 26 62 16 183 -19 229 -14 18 -16 17 -55 -9 -47
-31 -94 -29 -138 5 -36 29 -52 26 -95 -16 l-38 -37 -22 22 -22 22 34 35 c57
59 135 70 176 24 22 -24 49 -24 80 0 l25 20 -25 16 c-31 21 -111 45 -145 45
-14 -1 -50 -9 -79 -19z"/>
<path d="M188 136 l-27 -24 24 -16 c44 -29 121 -41 180 -29 57 12 138 59 132
77 -7 20 -49 18 -79 -4 -39 -29 -101 -29 -139 -1 -36 27 -57 26 -91 -3z"/>
</g>
</svg>
