<svg width="126" height="38" viewBox="0 0 126 38" fill="none" xmlns="http://www.w3.org/2000/svg">
<path fill-rule="evenodd" clip-rule="evenodd" d="M13.6801 34C21.2354 34 27.3603 27.8436 27.3603 20.2494C27.3603 12.6552 21.2354 6.49884 13.6801 6.49884C6.1248 6.49884 0 12.6552 0 20.2494C0 27.8436 6.1248 34 13.6801 34ZM13.6804 28.634C18.2873 28.634 22.0219 24.8802 22.0219 20.2495C22.0219 15.6189 18.2873 11.8651 13.6804 11.8651C9.0735 11.8651 5.33887 15.6189 5.33887 20.2495C5.33887 24.8802 9.0735 28.634 13.6804 28.634Z" fill="white"/>
<path fill-rule="evenodd" clip-rule="evenodd" d="M26.2598 14.8364C25.3836 15.7341 24.5937 16.7166 23.9082 17.7677L23.8046 17.9265C23.3968 18.5518 22.4798 18.5364 22.093 17.8977C20.7011 15.5993 18.7949 13.659 16.5262 12.2309L16.1568 11.9984C15.5982 11.6467 15.6257 10.8198 16.2065 10.5064C17.4962 9.81058 18.6676 8.92746 19.6861 7.89142C22.6218 9.33551 24.9671 11.8054 26.2598 14.8364Z" fill="#0085EA" fill-opacity="0.6"/>
<path fill-rule="evenodd" clip-rule="evenodd" d="M23.7554 4.41547C23.3787 3.83791 22.5265 3.86892 22.1924 4.47235L22.0581 4.71473C21.4113 5.88282 20.6122 6.9504 19.6867 7.89173C19.6865 7.89163 19.6863 7.89152 19.6861 7.89141C18.6676 8.92745 17.4962 9.81057 16.2065 10.5064C15.6257 10.8198 15.5982 11.6467 16.1568 11.9984L16.5262 12.2308C18.7949 13.659 20.7011 15.5993 22.093 17.8977C22.2903 18.2234 22.6255 18.3871 22.9607 18.3862C23.283 18.3858 23.6056 18.2332 23.8056 17.9265L23.9092 17.7677C25.3569 15.5481 27.2698 13.6343 29.4781 12.1792C30.1675 11.7249 30.179 10.7015 29.4896 10.2472L29.4064 10.1924C27.2281 8.75703 25.367 6.88635 23.9389 4.69682L23.7554 4.41547ZM22.9607 18.3862C23.2827 18.3854 23.6048 18.2329 23.8046 17.9265L23.9082 17.7677C24.5937 16.7166 25.3836 15.7341 26.2598 14.8364C24.9672 11.8056 22.6222 9.33587 19.6867 7.89173C18.6683 8.92764 17.497 9.81064 16.2074 10.5064C15.6267 10.8198 15.5992 11.6467 16.1578 11.9984L16.5271 12.2308C18.7959 13.659 20.702 15.5993 22.094 17.8977C22.2911 18.2231 22.6258 18.3867 22.9607 18.3862Z" fill="#0085EA"/>
<path d="M47.59 9.69V11.61C46.45 10.32 44.8 9.6 42.73 9.6C38.17 9.6 34.87 12.87 34.87 17.61C34.87 22.32 38.17 25.89 42.73 25.89C44.8 25.89 46.45 25.11 47.59 23.76V25.5H51.7V9.69H47.59ZM43.36 21.96C40.99 21.96 39.28 20.13 39.28 17.61C39.28 15.09 40.99 13.23 43.36 13.23C45.79 13.23 47.44 15.03 47.44 17.61C47.44 20.19 45.79 21.96 43.36 21.96ZM62.2473 25.5H64.8573V21.63H63.1773C61.6173 21.63 60.7473 20.73 60.7473 19.05V13.47H64.7373V9.69H60.8973V5.52H56.5773V7.98C56.5773 9.12 56.0373 9.69 54.9573 9.69H53.6073V13.47H56.3073V19.59C56.3073 23.16 58.3173 25.5 62.2473 25.5ZM66.967 25.5H71.407V3.57H66.967V25.5ZM86.5841 9.69V11.61C85.4441 10.32 83.7941 9.6 81.7241 9.6C77.1641 9.6 73.8641 12.87 73.8641 17.61C73.8641 22.32 77.1641 25.89 81.7241 25.89C83.7941 25.89 85.4441 25.11 86.5841 23.76V25.5H90.6941V9.69H86.5841ZM82.3541 21.96C79.9841 21.96 78.2741 20.13 78.2741 17.61C78.2741 15.09 79.9841 13.23 82.3541 13.23C84.7841 13.23 86.4341 15.03 86.4341 17.61C86.4341 20.19 84.7841 21.96 82.3541 21.96ZM99.7115 25.89C103.761 25.89 106.371 23.94 106.371 20.76C106.371 14.94 97.9115 16.47 97.9115 13.92C97.9115 13.11 98.5715 12.63 99.7715 12.63C100.941 12.63 101.781 13.17 102.171 14.25L105.921 12.81C105.261 10.62 102.981 9.33 99.8315 9.33C95.9915 9.33 93.5315 11.16 93.5315 14.16C93.5315 19.59 101.961 18.27 101.961 21.03C101.961 21.93 101.181 22.47 99.8615 22.47C98.0915 22.47 96.9515 21.66 96.5315 20.28L92.7815 21.72C93.6815 24.45 96.2015 25.89 99.7115 25.89Z" fill="white"/>
<path d="M118.38 13.02L123.42 8.13V4.65H109.59V8.13H118.41L113.16 12.99V15.93H116.58C118.44 15.93 119.91 17.07 119.91 18.96C119.91 20.76 118.56 22.08 116.49 22.08C114.51 22.08 113.07 21.03 112.59 19.41L108.51 21.03C109.38 23.94 112.5 25.89 116.61 25.89C121.23 25.89 124.5 23.04 124.5 19.26C124.5 15.81 121.98 13.23 118.38 13.02Z" fill="#0085EA"/>
<path d="M38.68 31.8C39.28 31.49 39.66 30.92 39.66 30.24C39.66 29.22 38.94 28.55 37.73 28.55H34.7V35.5H37.64C39.08 35.5 39.9 34.72 39.9 33.54C39.9 32.73 39.45 32.1 38.68 31.8ZM38.39 30.49C38.39 31.05 37.95 31.4 37.35 31.4H35.96V29.58H37.37C38.05 29.58 38.39 29.95 38.39 30.49ZM37.46 34.47H35.96V32.43H37.45C38.16 32.43 38.63 32.8 38.63 33.45C38.63 34.1 38.2 34.47 37.46 34.47ZM44.0398 34.39V32.5H46.9598V31.39H44.0398V29.66H47.3098V28.55H42.7598V35.5H47.3698V34.39H44.0398ZM55.1434 28.55H49.6734V29.69H51.7734V35.5H53.0534V29.69H55.1434V28.55ZM61.4248 35.5H62.6848L60.2748 28.55H58.7248L56.3248 35.5H57.5948L58.1548 33.85H60.8648L61.4248 35.5ZM58.5148 32.8L59.5048 29.89L60.5048 32.8H58.5148Z" fill="#0085EA"/>
</svg>
