<svg width="24" height="24" viewBox="0 0 24 24" fill="none" xmlns="http://www.w3.org/2000/svg">
<rect x="0.5" y="0.5" width="23" height="23" rx="11.5" fill="#0085EA"/>
<mask id="mask0_1854_54469" style="mask-type:alpha" maskUnits="userSpaceOnUse" x="4" y="4" width="16" height="16">
<rect x="4" y="4" width="16" height="16" fill="#D9D9D9"/>
</mask>
<g mask="url(#mask0_1854_54469)">
<path d="M12.0005 16.7579C11.7877 16.7579 11.6081 16.6847 11.4618 16.5383C11.3154 16.3919 11.2422 16.2123 11.2422 15.9995V12.7579H8.00052C7.78772 12.7579 7.60813 12.6847 7.46175 12.5383C7.31538 12.3919 7.24219 12.2123 7.24219 11.9995C7.24219 11.7867 7.31538 11.6072 7.46175 11.4608C7.60813 11.3144 7.78772 11.2412 8.00052 11.2412H11.2422V7.99954C11.2422 7.78674 11.3154 7.60716 11.4618 7.46078C11.6081 7.3144 11.7877 7.24121 12.0005 7.24121C12.2133 7.24121 12.3929 7.3144 12.5393 7.46078C12.6857 7.60716 12.7589 7.78674 12.7589 7.99954V11.2412H16.0005C16.2133 11.2412 16.3929 11.3144 16.5393 11.4608C16.6857 11.6072 16.7589 11.7867 16.7589 11.9995C16.7589 12.2123 16.6857 12.3919 16.5393 12.5383C16.3929 12.6847 16.2133 12.7579 16.0005 12.7579H12.7589V15.9995C12.7589 16.2123 12.6857 16.3919 12.5393 16.5383C12.3929 16.6847 12.2133 16.7579 12.0005 16.7579Z" fill="white"/>
</g>
<rect x="0.5" y="0.5" width="23" height="23" rx="11.5" stroke="#339DEE"/>
</svg>