<svg width="131" height="28" viewBox="0 0 131 28" fill="none" xmlns="http://www.w3.org/2000/svg">
<g clip-path="url(#clip0_216_4317)">
<path d="M21.3988 24.8233V14.3357H25.8265C26.5219 14.3357 27.1168 14.4553 27.6101 14.6946C28.1038 14.9339 28.4844 15.2717 28.7524 15.7082C29.0203 16.1446 29.1541 16.6724 29.1541 17.2917C29.1541 17.7702 29.0246 18.2185 28.7663 18.6359C28.5077 19.0538 28.0967 19.3984 27.5325 19.6706V18.7838C28.0494 18.9809 28.4583 19.2249 28.7592 19.5159C29.06 19.807 29.2715 20.1305 29.3938 20.4873C29.5158 20.8441 29.577 21.2194 29.577 21.6134C29.577 22.6176 29.2457 23.4037 28.5828 23.9712C27.9199 24.539 27.0013 24.8229 25.8261 24.8229H21.3984L21.3988 24.8233ZM23.3166 18.4042H25.9252C26.3202 18.4042 26.635 18.2895 26.87 18.0592C27.105 17.8292 27.2224 17.5313 27.2224 17.1653C27.2224 16.7992 27.1047 16.5085 26.87 16.2924C26.635 16.0767 26.3202 15.9685 25.9252 15.9685H23.3166V18.4038V18.4042ZM23.3166 23.134H26.024C26.5219 23.134 26.9194 22.9958 27.2156 22.7187C27.5118 22.4419 27.6599 22.0737 27.6599 21.6137C27.6599 21.1537 27.5118 20.783 27.2156 20.5016C26.9194 20.2202 26.5223 20.0791 26.024 20.0791H23.3166V23.134Z" fill="white"/>
<path d="M30.8184 24.8233V14.1667H32.6657V24.8233H30.8184Z" fill="white"/>
<path d="M37.9531 24.9921C37.2008 24.9921 36.5172 24.8185 35.9015 24.4714C35.2858 24.1243 34.7968 23.6503 34.4351 23.0496C34.0731 22.4493 33.8921 21.764 33.8921 20.9943C33.8921 20.2247 34.0731 19.5397 34.4351 18.939C34.7968 18.3387 35.2833 17.8644 35.8947 17.5173C36.5057 17.1701 37.1918 16.9966 37.9535 16.9966C38.7151 16.9966 39.3869 17.1705 39.9979 17.5173C40.6089 17.8644 41.0954 18.3362 41.4575 18.9319C41.8191 19.5279 42.0005 20.2154 42.0005 20.9943C42.0005 21.7732 41.8173 22.4493 41.4507 23.0496C41.084 23.6503 40.595 24.1243 39.9843 24.4714C39.3733 24.8189 38.6965 24.9921 37.9538 24.9921H37.9531ZM37.9531 23.3028C38.3666 23.3028 38.7308 23.2043 39.046 23.0071C39.3608 22.81 39.6101 22.5357 39.7933 22.1836C39.9764 21.8315 40.0684 21.4354 40.0684 20.994C40.0684 20.5526 39.9768 20.1472 39.7933 19.8044C39.6101 19.4619 39.3608 19.1897 39.046 18.988C38.7308 18.7862 38.3666 18.6855 37.9531 18.6855C37.5396 18.6855 37.1586 18.7865 36.8391 18.988C36.5193 19.1897 36.2682 19.4619 36.0846 19.8044C35.9015 20.1472 35.8096 20.5433 35.8096 20.994C35.8096 21.4447 35.9011 21.8315 36.0846 22.1836C36.2678 22.5354 36.5193 22.81 36.8391 23.0071C37.1586 23.2043 37.5299 23.3028 37.9531 23.3028Z" fill="white"/>
<path d="M46.9215 24.9921C46.1599 24.9921 45.4762 24.816 44.8699 24.4642C44.2635 24.1125 43.7863 23.6336 43.4386 23.0282C43.0908 22.4229 42.917 21.74 42.917 20.9801C42.917 20.2201 43.0908 19.5397 43.4386 18.939C43.7863 18.3387 44.2635 17.8644 44.8699 17.5173C45.4762 17.1701 46.1602 16.9966 46.9215 16.9966C47.4667 16.9966 47.9743 17.093 48.4444 17.2851C48.9144 17.4776 49.3208 17.7405 49.6642 18.0733C50.0073 18.4065 50.2541 18.8033 50.4044 19.263L48.7828 19.9669C48.6418 19.5822 48.4043 19.2726 48.0705 19.0376C47.7368 18.803 47.3536 18.6858 46.9215 18.6858C46.5172 18.6858 46.1577 18.7844 45.8429 18.9815C45.5277 19.1787 45.2809 19.4508 45.1028 19.7979C44.9239 20.1451 44.8348 20.544 44.8348 20.9943C44.8348 21.4447 44.9239 21.844 45.1028 22.1907C45.2813 22.5379 45.5281 22.81 45.8429 23.0071C46.1577 23.2043 46.5172 23.3028 46.9215 23.3028C47.3633 23.3028 47.7486 23.1857 48.0777 22.9511C48.4068 22.7164 48.6418 22.4022 48.7828 22.0079L50.4044 22.74C50.2538 23.1718 50.0094 23.5589 49.671 23.9014C49.3326 24.2443 48.9284 24.5114 48.4583 24.7039C47.9882 24.896 47.476 24.9924 46.9215 24.9924V24.9921Z" fill="white"/>
<path d="M51.6309 24.8233V14.1667H53.4782V21.1491L52.7731 20.938L56.383 17.1652H58.6815L55.8471 20.248L58.7376 24.8233H56.6223L54.1125 20.8534L55.2125 20.628L52.9001 23.1058L53.4782 21.9798V24.8233H51.6309Z" fill="white"/>
<path d="M62.517 24.9922C61.6992 24.9922 60.987 24.7976 60.3806 24.4079C59.7742 24.0187 59.3582 23.4908 59.1328 22.8244L60.5147 22.1626C60.7122 22.5944 60.987 22.9323 61.3397 23.1762C61.692 23.4205 62.0845 23.5422 62.517 23.5422C62.8554 23.5422 63.1233 23.4672 63.3208 23.3169C63.5183 23.1669 63.617 22.9698 63.617 22.7258C63.617 22.5758 63.577 22.4512 63.4972 22.3526C63.417 22.2541 63.309 22.1698 63.1727 22.0991C63.0364 22.0287 62.8883 21.9701 62.7284 21.923L61.4735 21.5712C60.8249 21.3837 60.3334 21.0973 60 20.7127C59.6662 20.328 59.4995 19.873 59.4995 19.3473C59.4995 18.8781 59.6193 18.4674 59.859 18.1156C60.0987 17.7638 60.4325 17.4892 60.8603 17.292C61.2878 17.0949 61.779 16.9963 62.3338 16.9963C63.0575 16.9963 63.6968 17.1703 64.2516 17.517C64.8061 17.8642 65.2011 18.3524 65.4361 18.9809L64.0259 19.6427C63.8943 19.2956 63.6735 19.0188 63.363 18.812C63.0529 18.6056 62.7048 18.5024 62.3195 18.5024C62.0094 18.5024 61.7647 18.5727 61.5862 18.7134C61.4073 18.8541 61.3182 19.0374 61.3182 19.2624C61.3182 19.4031 61.3558 19.5252 61.4309 19.6284C61.506 19.732 61.6119 19.8163 61.7482 19.882C61.8845 19.9477 62.0419 20.0088 62.2208 20.0648L63.4475 20.4309C64.0771 20.6187 64.5636 20.9002 64.907 21.2755C65.2501 21.6509 65.4218 22.1108 65.4218 22.6551C65.4218 23.1151 65.2994 23.5208 65.0551 23.8729C64.8104 24.2247 64.472 24.4994 64.0399 24.6965C63.6074 24.8936 63.0997 24.9922 62.517 24.9922Z" fill="white"/>
<path d="M66.6763 24.8233V17.1653H68.4106V18.9391L68.2131 18.6434C68.354 18.0899 68.6363 17.677 69.0591 17.4045C69.4823 17.1324 69.9803 16.9963 70.5538 16.9963C71.1834 16.9963 71.7382 17.1606 72.2176 17.4892C72.6969 17.8177 73.0071 18.2495 73.1484 18.7841L72.6268 18.8263C72.8619 18.2163 73.2142 17.7588 73.6843 17.4538C74.1544 17.1488 74.6949 16.9963 75.3059 16.9963C75.8511 16.9963 76.3376 17.1185 76.7655 17.3624C77.1933 17.6067 77.5292 17.9467 77.7736 18.3831C78.0179 18.8195 78.1402 19.3241 78.1402 19.8963V24.8233H76.2929V20.3327C76.2929 19.9948 76.2317 19.7041 76.1097 19.4598C75.9874 19.2159 75.8182 19.0259 75.6021 18.8899C75.3857 18.7538 75.1227 18.6856 74.8126 18.6856C74.521 18.6856 74.2628 18.7538 74.037 18.8899C73.8113 19.0259 73.6374 19.2159 73.5154 19.4598C73.3931 19.7041 73.3323 19.9948 73.3323 20.3327V24.8233H71.4849V20.3327C71.4849 19.9948 71.4238 19.7041 71.3018 19.4598C71.1794 19.2159 71.0077 19.0259 70.787 18.8899C70.5659 18.7538 70.3051 18.6856 70.0043 18.6856C69.7034 18.6856 69.4544 18.7538 69.2287 18.8899C69.003 19.0259 68.8291 19.2159 68.7071 19.4598C68.5848 19.7041 68.524 19.9948 68.524 20.3327V24.8233H66.6766H66.6763Z" fill="white"/>
<path d="M79.5366 16.3064V14.3357H81.384V16.3064H79.5366ZM79.5366 24.8229V17.1653H81.384V24.8233H79.5366V24.8229Z" fill="white"/>
<path d="M86.4177 24.9075C85.5527 24.9075 84.883 24.6707 84.4083 24.1965C83.9335 23.7225 83.696 23.054 83.696 22.1904V18.812H82.3706V17.1649H82.5116C82.8875 17.1649 83.1791 17.0663 83.3859 16.8692C83.5926 16.672 83.696 16.386 83.696 16.0106V15.4192H85.5434V17.1649H87.3059V18.812H85.5434V22.0919C85.5434 22.3454 85.5877 22.5611 85.6775 22.7394C85.7666 22.9179 85.9079 23.054 86.1007 23.1476C86.2932 23.2415 86.54 23.2883 86.8409 23.2883C86.9067 23.2883 86.984 23.2836 87.0734 23.2743C87.1628 23.2651 87.2498 23.2558 87.3342 23.2461V24.8229C87.2025 24.8414 87.0523 24.8604 86.8831 24.8793C86.7139 24.8979 86.5586 24.9075 86.4177 24.9075Z" fill="white"/>
<path d="M88.5752 24.8233V14.1667H90.4225V18.6713L90.1689 18.4038C90.3474 17.9442 90.6415 17.5945 91.0504 17.3549C91.4593 17.1156 91.9361 16.996 92.4817 16.996C93.0272 16.996 93.5463 17.1181 93.9834 17.362C94.4206 17.6063 94.7611 17.9463 95.0058 18.3827C95.2502 18.8191 95.3725 19.3238 95.3725 19.8959V24.8229H93.5252V20.3323C93.5252 19.9945 93.4593 19.7037 93.3277 19.4595C93.1961 19.2155 93.015 19.0256 92.7847 18.8895C92.5543 18.7534 92.2842 18.6852 91.9737 18.6852C91.6632 18.6852 91.4049 18.7534 91.1698 18.8895C90.9348 19.0256 90.7513 19.2155 90.62 19.4595C90.4884 19.7037 90.4225 19.9945 90.4225 20.3323V24.8229H88.5752V24.8233Z" fill="white"/>
<path d="M99.4888 24.8233V14.3357H100.617V23.7672H105.27V24.8229H99.4888V24.8233Z" fill="white"/>
<path d="M108.837 24.9922C108.358 24.9922 107.93 24.9008 107.554 24.7176C107.178 24.5347 106.882 24.2837 106.666 23.9644C106.449 23.6455 106.341 23.2794 106.341 22.8662C106.341 22.453 106.426 22.113 106.595 21.7895C106.764 21.4655 107.027 21.1913 107.384 20.9659C107.741 20.7406 108.198 20.5813 108.752 20.4874L111.713 19.9945V20.9516L109.006 21.402C108.461 21.4959 108.068 21.6695 107.829 21.9227C107.589 22.1759 107.469 22.4766 107.469 22.8237C107.469 23.1709 107.603 23.448 107.871 23.6823C108.139 23.9169 108.484 24.034 108.907 24.034C109.424 24.034 109.875 23.9237 110.261 23.7033C110.646 23.483 110.947 23.1848 111.164 22.8094C111.38 22.4341 111.488 22.0166 111.488 21.5566V19.642C111.488 19.1917 111.323 18.8256 110.994 18.5438C110.665 18.2624 110.237 18.1213 109.711 18.1213C109.25 18.1213 108.846 18.2363 108.498 18.4663C108.15 18.6963 107.892 18.9942 107.723 19.3602L106.764 18.8395C106.905 18.5206 107.128 18.2296 107.434 17.9667C107.739 17.7042 108.09 17.4953 108.485 17.3403C108.879 17.1853 109.288 17.1082 109.711 17.1082C110.266 17.1082 110.757 17.216 111.185 17.4321C111.613 17.6481 111.946 17.946 112.186 18.326C112.426 18.706 112.546 19.1449 112.546 19.6424V24.823H111.488V23.3166L111.643 23.4716C111.512 23.753 111.307 24.009 111.03 24.2387C110.753 24.4687 110.428 24.6519 110.057 24.7876C109.685 24.9237 109.279 24.9919 108.837 24.9919L108.837 24.9922Z" fill="white"/>
<path d="M118.37 24.9922C117.721 24.9922 117.136 24.8443 116.614 24.5486C116.093 24.2529 115.7 23.8329 115.437 23.2887L115.606 23.1337V24.8229H114.549V14.1667H115.606V18.967L115.437 18.6713C115.738 18.1927 116.14 17.8127 116.643 17.5309C117.145 17.2495 117.721 17.1085 118.37 17.1085C119.085 17.1085 119.721 17.2799 120.281 17.6224C120.84 17.9652 121.282 18.432 121.606 19.0231C121.931 19.6145 122.093 20.2902 122.093 21.0501C122.093 21.8101 121.931 22.4744 121.606 23.0701C121.282 23.6661 120.84 24.1354 120.281 24.4779C119.721 24.8208 119.085 24.9918 118.37 24.9918L118.37 24.9922ZM118.313 23.9365C118.821 23.9365 119.274 23.8097 119.674 23.5565C120.074 23.3033 120.388 22.9583 120.619 22.5219C120.849 22.0855 120.964 21.5951 120.964 21.0509C120.964 20.5066 120.849 20.0045 120.619 19.5727C120.388 19.1413 120.074 18.7984 119.674 18.5452C119.274 18.2916 118.821 18.1652 118.313 18.1652C117.806 18.1652 117.347 18.292 116.938 18.5452C116.53 18.7988 116.205 19.1434 115.965 19.5798C115.726 20.0162 115.606 20.5066 115.606 21.0509C115.606 21.5951 115.726 22.0855 115.965 22.5219C116.205 22.9583 116.53 23.3033 116.938 23.5565C117.347 23.8097 117.806 23.9365 118.313 23.9365Z" fill="white"/>
<path d="M126.407 24.9921C125.683 24.9921 125.049 24.8093 124.504 24.4432C123.959 24.0772 123.564 23.58 123.319 22.9511L124.208 22.5286C124.424 22.9886 124.727 23.3547 125.117 23.6268C125.507 23.899 125.937 24.035 126.407 24.035C126.878 24.035 127.239 23.9247 127.55 23.7043C127.86 23.484 128.015 23.1954 128.015 22.8386C128.015 22.5761 127.939 22.3669 127.789 22.2122C127.639 22.0572 127.465 21.9376 127.268 21.8533C127.07 21.7687 126.896 21.7079 126.746 21.6704L125.66 21.3608C124.965 21.1637 124.462 20.8869 124.151 20.5301C123.841 20.1737 123.686 19.7608 123.686 19.2912C123.686 18.8502 123.799 18.4655 124.024 18.137C124.25 17.8084 124.555 17.5552 124.941 17.3766C125.326 17.1984 125.754 17.1091 126.224 17.1091C126.863 17.1091 127.444 17.2759 127.966 17.6088C128.487 17.942 128.856 18.4041 129.072 18.9955L128.17 19.418C127.982 18.9955 127.712 18.6648 127.359 18.4255C127.007 18.1862 126.614 18.0666 126.182 18.0666C125.749 18.0666 125.42 18.1745 125.166 18.3905C124.912 18.6066 124.786 18.8787 124.786 19.2069C124.786 19.4605 124.851 19.6623 124.983 19.8123C125.115 19.9626 125.268 20.0751 125.441 20.1501C125.615 20.2255 125.768 20.2815 125.9 20.319L127.155 20.6851C127.766 20.8637 128.242 21.1405 128.586 21.5158C128.929 21.8912 129.101 22.3322 129.101 22.839C129.101 23.2522 128.985 23.6225 128.755 23.9511C128.525 24.2797 128.207 24.5354 127.803 24.7182C127.399 24.9011 126.934 24.9929 126.407 24.9929V24.9921Z" fill="white"/>
<path d="M6.32337 25.522V26.6623C6.32337 27.3057 5.62645 27.708 5.06753 27.3875L1.25216 25.1964L0.417694 24.7133C0.159165 24.5636 0 24.2881 0 23.9896V18.6307C0 17.9873 0.697383 17.5845 1.25584 17.906L2.80471 18.7964C2.67959 19.2212 2.61703 19.6589 2.61703 20.109C2.61703 20.559 2.67959 20.9962 2.79229 21.4215C3.03012 22.2467 3.46852 22.9838 4.04446 23.584C4.54541 24.0842 5.14205 24.48 5.80954 24.7335C6.12879 24.8548 6.32291 25.1813 6.32291 25.5225L6.32337 25.522Z" fill="white"/>
<path d="M12.6454 15.7347L11.6449 16.3142C11.3454 16.4878 10.9594 16.4837 10.6912 16.2646C9.84435 15.5721 8.75596 15.1588 7.57556 15.1588C6.39516 15.1588 5.3063 15.5721 4.45987 16.2646C4.19169 16.4837 3.80573 16.4878 3.50626 16.3142L2.50573 15.7347C1.94819 15.4118 1.94957 14.6077 2.50803 14.2867L7.15694 11.6116C7.41593 11.4628 7.73472 11.4628 7.99371 11.6116L12.6431 14.2862C13.2015 14.6072 13.2029 15.4114 12.6454 15.7342V15.7347Z" fill="white"/>
<path d="M15.1505 18.6307V23.9896C15.1505 24.2876 14.9914 24.5636 14.7328 24.7133L13.8984 25.1965L10.083 27.3875C9.52453 27.7085 8.82715 27.3058 8.82715 26.6624V25.5225C8.82715 25.1808 9.02174 24.8543 9.34191 24.7331C10.0121 24.4796 10.6152 24.0837 11.1061 23.5836C11.6944 22.9838 12.1328 22.2339 12.3582 21.4086C12.4709 20.9962 12.5335 20.5586 12.5335 20.1085C12.5335 19.6585 12.4709 19.2208 12.3458 18.796L13.8947 17.9055C14.4531 17.5845 15.1505 17.9868 15.1505 18.6302V18.6307Z" fill="white"/>
</g>
<path d="M30.504 7.5V2.285H32.45C32.8047 2.285 33.1173 2.35033 33.388 2.481C33.6633 2.607 33.878 2.79367 34.032 3.041C34.186 3.28367 34.263 3.58 34.263 3.93C34.263 4.27533 34.1837 4.57167 34.025 4.819C33.871 5.06167 33.6587 5.24833 33.388 5.379C33.1173 5.50967 32.8047 5.575 32.45 5.575H31.456V7.5H30.504ZM31.456 4.735H32.464C32.6367 4.735 32.786 4.70233 32.912 4.637C33.038 4.567 33.136 4.47133 33.206 4.35C33.276 4.22867 33.311 4.08867 33.311 3.93C33.311 3.76667 33.276 3.62667 33.206 3.51C33.136 3.38867 33.038 3.29533 32.912 3.23C32.786 3.16 32.6367 3.125 32.464 3.125H31.456V4.735ZM40.4121 7.584C40.0294 7.584 39.6724 7.51633 39.3411 7.381C39.0097 7.24567 38.7204 7.05667 38.4731 6.814C38.2257 6.57133 38.0321 6.28667 37.8921 5.96C37.7567 5.62867 37.6891 5.27167 37.6891 4.889C37.6891 4.50167 37.7567 4.14467 37.8921 3.818C38.0274 3.49133 38.2187 3.20667 38.4661 2.964C38.7134 2.72133 39.0027 2.53467 39.3341 2.404C39.6654 2.26867 40.0247 2.201 40.4121 2.201C40.7994 2.201 41.1587 2.26867 41.4901 2.404C41.8214 2.53933 42.1107 2.72833 42.3581 2.971C42.6054 3.209 42.7967 3.49133 42.9321 3.818C43.0721 4.14467 43.1421 4.50167 43.1421 4.889C43.1421 5.27167 43.0721 5.62867 42.9321 5.96C42.7921 6.28667 42.5984 6.57133 42.3511 6.814C42.1037 7.05667 41.8144 7.24567 41.4831 7.381C41.1564 7.51633 40.7994 7.584 40.4121 7.584ZM40.4121 6.716C40.6687 6.716 40.9044 6.67167 41.1191 6.583C41.3337 6.48967 41.5204 6.36133 41.6791 6.198C41.8424 6.03467 41.9661 5.841 42.0501 5.617C42.1387 5.393 42.1831 5.15033 42.1831 4.889C42.1831 4.62767 42.1387 4.38733 42.0501 4.168C41.9661 3.944 41.8424 3.75033 41.6791 3.587C41.5204 3.419 41.3337 3.29067 41.1191 3.202C40.9044 3.11333 40.6687 3.069 40.4121 3.069C40.1601 3.069 39.9267 3.11333 39.7121 3.202C39.4974 3.29067 39.3084 3.419 39.1451 3.587C38.9864 3.75033 38.8627 3.944 38.7741 4.168C38.6854 4.38733 38.6411 4.62767 38.6411 4.889C38.6411 5.15033 38.6854 5.393 38.7741 5.617C38.8627 5.841 38.9864 6.03467 39.1451 6.198C39.3084 6.36133 39.4974 6.48967 39.7121 6.583C39.9267 6.67167 40.1601 6.716 40.4121 6.716ZM47.6249 7.5L46.2249 2.285H47.2469L48.3459 6.73H48.0799L49.2279 2.285H50.2149L51.3559 6.73H51.0899L52.1889 2.285H53.2109L51.8109 7.5H50.7189L49.5639 3.174H49.8719L48.7169 7.5H47.6249ZM56.5886 7.5V2.285H60.0536V3.125H57.5406V4.462H59.9136V5.302H57.5406V6.66H60.0536V7.5H56.5886ZM63.5517 7.5V2.285H65.4907C65.8453 2.285 66.158 2.35033 66.4287 2.481C66.704 2.607 66.9187 2.79367 67.0727 3.041C67.2267 3.28367 67.3037 3.58 67.3037 3.93C67.3037 4.28933 67.2173 4.595 67.0447 4.847C66.8767 5.099 66.648 5.28567 66.3587 5.407L67.5557 7.5H66.4777L65.1967 5.211L65.8127 5.575H64.5037V7.5H63.5517ZM64.5037 4.735H65.5047C65.6773 4.735 65.8267 4.70233 65.9527 4.637C66.0787 4.567 66.1767 4.47133 66.2467 4.35C66.3167 4.22867 66.3517 4.08867 66.3517 3.93C66.3517 3.76667 66.3167 3.62667 66.2467 3.51C66.1767 3.38867 66.0787 3.29533 65.9527 3.23C65.8267 3.16 65.6773 3.125 65.5047 3.125H64.5037V4.735ZM70.9796 7.5V2.285H74.4446V3.125H71.9316V4.462H74.3046V5.302H71.9316V6.66H74.4446V7.5H70.9796ZM77.9427 7.5V2.285H79.6437C80.1943 2.285 80.6727 2.397 81.0787 2.621C81.4893 2.84033 81.8067 3.146 82.0307 3.538C82.2547 3.92533 82.3667 4.37567 82.3667 4.889C82.3667 5.39767 82.2547 5.85033 82.0307 6.247C81.8067 6.639 81.4893 6.947 81.0787 7.171C80.6727 7.39033 80.1943 7.5 79.6437 7.5H77.9427ZM78.8947 6.66H79.6647C80.0193 6.66 80.325 6.58767 80.5817 6.443C80.843 6.29367 81.046 6.08833 81.1907 5.827C81.3353 5.561 81.4077 5.24833 81.4077 4.889C81.4077 4.525 81.3353 4.21233 81.1907 3.951C81.046 3.68967 80.843 3.48667 80.5817 3.342C80.325 3.19733 80.0193 3.125 79.6647 3.125H78.8947V6.66ZM89.9685 7.5V2.285H92.1665C92.5118 2.285 92.8058 2.34567 93.0485 2.467C93.2958 2.58367 93.4848 2.75167 93.6155 2.971C93.7508 3.18567 93.8185 3.447 93.8185 3.755C93.8185 3.993 93.7531 4.217 93.6225 4.427C93.4965 4.63233 93.2935 4.80267 93.0135 4.938V4.497C93.2701 4.595 93.4731 4.71633 93.6225 4.861C93.7718 5.00567 93.8768 5.16667 93.9375 5.344C93.9981 5.52133 94.0285 5.708 94.0285 5.904C94.0285 6.40333 93.8628 6.79533 93.5315 7.08C93.2048 7.36 92.7498 7.5 92.1665 7.5H89.9685ZM90.9205 6.66H92.2645C92.5118 6.66 92.7078 6.59233 92.8525 6.457C93.0018 6.317 93.0765 6.13267 93.0765 5.904C93.0765 5.67533 93.0018 5.491 92.8525 5.351C92.7078 5.211 92.5118 5.141 92.2645 5.141H90.9205V6.66ZM90.9205 4.308H92.2155C92.4115 4.308 92.5678 4.252 92.6845 4.14C92.8011 4.02333 92.8595 3.874 92.8595 3.692C92.8595 3.51 92.8011 3.36533 92.6845 3.258C92.5678 3.15067 92.4115 3.097 92.2155 3.097H90.9205V4.308ZM98.658 7.5V5.19L96.901 2.285H97.986L99.33 4.553H98.945L100.282 2.285H101.367L99.617 5.183V7.5H98.658Z" fill="white"/>
<defs>
<clipPath id="clip0_216_4317">
<rect width="131" height="16" fill="white" transform="translate(0 11.5)"/>
</clipPath>
</defs>
</svg>
