<svg width="14" height="14" viewBox="0 0 14 14" fill="none" xmlns="http://www.w3.org/2000/svg">
<mask id="mask0_1596_6411" style="mask-type:alpha" maskUnits="userSpaceOnUse" x="-1" y="-1" width="16" height="16">
<rect x="-0.5" y="-0.5" width="15" height="15" rx="3.5" fill="#D9D9D9" stroke="#66B6F2"/>
</mask>
<g mask="url(#mask0_1596_6411)">
<circle cx="7" cy="7" r="3.5" fill="#F8FAFC"/>
<path d="M5.82059 12.7816C5.35961 12.9782 4.8243 12.8032 4.56844 12.3723L4.12781 11.6302C3.98693 11.3929 3.75426 11.2244 3.48489 11.1645L2.66879 10.9832C2.17648 10.8738 1.84267 10.4149 1.89017 9.91281L1.97065 9.06198C1.99653 8.78836 1.90866 8.51614 1.72767 8.3093L1.15822 7.6585C0.828325 7.28148 0.828325 6.71852 1.15822 6.3415L1.72767 5.6907C1.90866 5.48386 1.99653 5.21164 1.97065 4.93802L1.89017 4.08719C1.84267 3.58511 2.17648 3.12623 2.66879 3.01683L3.48489 2.83548C3.75426 2.77562 3.98693 2.6071 4.12781 2.36983L4.56844 1.62771C4.8243 1.19679 5.35961 1.02181 5.82059 1.2184L6.60641 1.55353C6.85702 1.66041 7.14038 1.66041 7.39098 1.55353L8.17681 1.2184C8.63779 1.02181 9.1731 1.19679 9.42895 1.62771L9.86959 2.36983C10.0105 2.6071 10.2431 2.77562 10.5125 2.83548L11.3286 3.01683C11.8209 3.12623 12.1547 3.58511 12.1072 4.08719L12.0267 4.93802C12.0009 5.21164 12.0887 5.48386 12.2697 5.6907L12.8392 6.3415C13.1691 6.71852 13.1691 7.28148 12.8392 7.6585L12.2697 8.3093C12.0887 8.51614 12.0009 8.78836 12.0267 9.06198L12.1072 9.91281C12.1547 10.4149 11.8209 10.8738 11.3286 10.9832L10.5125 11.1645C10.2431 11.2244 10.0105 11.3929 9.86959 11.6302L9.42895 12.3723C9.1731 12.8032 8.63779 12.9782 8.17681 12.7816L7.39098 12.4465C7.14038 12.3396 6.85702 12.3396 6.60641 12.4465L5.82059 12.7816ZM5.67909 8.36373C6.06962 8.75425 6.70278 8.75425 7.0933 8.36373L9.27363 6.1834C9.50033 5.9567 9.50355 5.59014 9.28086 5.3595C9.05258 5.12306 8.67478 5.11975 8.44238 5.35215L7.00603 6.7885C6.66253 7.132 6.10663 7.13527 5.75911 6.79583L5.54271 6.58446C5.31512 6.36217 4.95106 6.36431 4.7261 6.58926C4.49926 6.81611 4.49926 7.18389 4.7261 7.41074L5.67909 8.36373Z" fill="#0085EA"/>
</g>
</svg>
