<svg width="27" height="27" viewBox="0 0 27 27" fill="none" xmlns="http://www.w3.org/2000/svg">
<g clip-path="url(#clip0_1709_59176)">
<path d="M11.8767 0.908813C12.8206 0.348563 13.9952 0.348563 14.9391 0.908813L19.1733 3.42194L23.4668 5.8323C24.424 6.36964 25.0112 7.38682 24.998 8.48441L24.9387 13.4079L24.998 18.3314C25.0112 19.429 24.424 20.4462 23.4668 20.9835L19.1733 23.3939L14.9391 25.907C13.9952 26.4672 12.8206 26.4672 11.8767 25.907L7.6425 23.3939L3.34897 20.9835C2.39182 20.4462 1.80455 19.429 1.81777 18.3314L1.87711 13.4079L1.81777 8.48441C1.80455 7.38682 2.39182 6.36964 3.34897 5.8323L7.6425 3.42194L11.8767 0.908813Z" fill="#F8FAFC"/>
<g filter="url(#filter0_i_1709_59176)">
<path d="M11.8768 1.81671C12.8207 1.25646 13.9952 1.25646 14.9392 1.81671L18.783 4.09813L22.6806 6.28625C23.6378 6.82359 24.225 7.84077 24.2118 8.93836L24.158 13.4079L24.2118 17.8774C24.225 18.975 23.6378 19.9922 22.6806 20.5295L18.783 22.7177L14.9392 24.9991C13.9952 25.5593 12.8207 25.5593 11.8768 24.9991L8.03296 22.7177L4.13529 20.5295C3.17814 19.9922 2.59087 18.975 2.6041 17.8774L2.65796 13.4079L2.6041 8.93836C2.59087 7.84077 3.17814 6.82359 4.1353 6.28625L8.03296 4.09813L11.8768 1.81671Z" fill="#CBA700"/>
</g>
<g filter="url(#filter1_i_1709_59176)">
<path d="M11.8766 3.02435C12.8206 2.4641 13.9951 2.4641 14.939 3.02435L18.2635 4.99755L21.6346 6.89007C22.5918 7.42741 23.1791 8.44459 23.1658 9.54218L23.1193 13.4079L23.1658 17.2736C23.1791 18.3712 22.5918 19.3884 21.6346 19.9257L18.2635 21.8182L14.939 23.7914C13.9951 24.3517 12.8206 24.3517 11.8766 23.7914L8.55212 21.8182L5.18102 19.9257C4.22387 19.3884 3.6366 18.3712 3.64982 17.2736L3.69641 13.4079L3.64982 9.54218C3.6366 8.44459 4.22387 7.42741 5.18102 6.89007L8.55212 4.99755L11.8766 3.02435Z" fill="#FFCF00"/>
</g>
<g filter="url(#filter2_d_1709_59176)">
<mask id="mask0_1709_59176" style="mask-type:alpha" maskUnits="userSpaceOnUse" x="7" y="7" width="13" height="13">
<rect x="7.41541" y="7.41541" width="11.985" height="11.985" fill="#D9D9D9"/>
</mask>
<g mask="url(#mask0_1709_59176)">
<path d="M13.5369 16.5216C14.1573 16.2833 14.6817 16.0347 15.1095 15.7757L15.1095 15.7757C15.5328 15.5191 15.9991 15.1777 16.5084 14.7519L16.6232 15.3489L16.6232 15.3491L13.5369 16.5216ZM13.5369 16.5216L14.0234 17.6527L14.0237 17.6535L14.0237 17.6535C14.0864 17.8101 14.1984 17.9027 14.3626 17.934C14.5273 17.9654 14.6666 17.9227 14.7841 17.8053L16.3571 16.2322C16.4699 16.1194 16.5506 15.9846 16.599 15.8272L13.5369 16.5216ZM10.4566 13.4412L9.32542 12.9547L9.32542 12.9547L9.32468 12.9544C9.16822 12.8918 9.07792 12.7801 9.05077 12.6163L9.05076 12.6162C9.02312 12.4514 9.06769 12.3117 9.18536 12.194L10.7584 10.621C10.8713 10.5081 11.0043 10.4275 11.1577 10.379C11.3106 10.3307 11.4675 10.3226 11.6289 10.3549C11.6289 10.3549 11.629 10.3549 11.629 10.3549L12.2269 10.4814C11.8008 10.9909 11.4594 11.4554 11.203 11.875C10.9436 12.2987 10.6949 12.8209 10.4566 13.4412ZM17.8136 8.64512L17.8136 8.64515H17.8149C17.8761 8.64515 17.9379 8.66041 18.0007 8.69179C18.0644 8.72366 18.1199 8.76334 18.1674 8.81078C18.2148 8.85822 18.2545 8.9137 18.2863 8.97744C18.3177 9.0402 18.333 9.10203 18.333 9.16321L18.333 9.16456C18.3661 9.9331 18.203 10.7315 17.8427 11.5602C17.4821 12.3888 16.9745 13.1305 16.3197 13.7853C15.8714 14.2336 15.4403 14.592 15.0264 14.8608L15.0264 14.8608C14.6122 15.1302 14.1229 15.3854 13.5585 15.6261C13.4539 15.6663 13.3477 15.6863 13.2397 15.6863C13.1358 15.6863 13.0458 15.6482 12.9681 15.5706L11.4076 14.01C11.3299 13.9323 11.2919 13.8423 11.2919 13.7385C11.2919 13.6305 11.3119 13.5243 11.352 13.4197C11.5927 12.8636 11.8479 12.3763 12.1174 11.9576L12.1174 11.9576C12.3862 11.5398 12.7446 11.1067 13.1928 10.6585C13.8476 10.0037 14.5893 9.49605 15.4179 9.13544C16.2466 8.77513 17.045 8.61207 17.8136 8.64512ZM14.6218 12.3563C14.8193 12.5538 15.0625 12.6526 15.3495 12.6526C15.6362 12.6526 15.8792 12.5538 16.0767 12.3563C16.2742 12.1589 16.373 11.9156 16.373 11.6286C16.373 11.342 16.2742 11.0989 16.0767 10.9014C15.8792 10.7039 15.6362 10.6051 15.3495 10.6051C15.0625 10.6051 14.8193 10.7039 14.6218 10.9014C14.4243 11.0989 14.3255 11.342 14.3255 11.6286C14.3255 11.9156 14.4243 12.1589 14.6218 12.3563ZM9.46001 15.4525C9.74546 15.167 10.0913 15.0224 10.4994 15.0182C10.9072 15.0143 11.2529 15.1547 11.5382 15.44C11.8235 15.7254 11.966 16.0711 11.966 16.479C11.966 16.887 11.8235 17.2327 11.5382 17.5181C11.3354 17.7208 10.9938 17.8979 10.5089 18.0472C10.0319 18.1939 9.37522 18.3249 8.53812 18.44C8.65321 17.603 8.78424 16.9485 8.93093 16.4758C9.08018 15.9949 9.25724 15.6552 9.46001 15.4525Z" fill="white" stroke="#FFE678" stroke-width="0.0625"/>
</g>
</g>
</g>
<defs>
<filter id="filter0_i_1709_59176" x="2.60388" y="0.64653" width="21.6082" height="24.7727" filterUnits="userSpaceOnUse" color-interpolation-filters="sRGB">
<feFlood flood-opacity="0" result="BackgroundImageFix"/>
<feBlend mode="normal" in="SourceGraphic" in2="BackgroundImageFix" result="shape"/>
<feColorMatrix in="SourceAlpha" type="matrix" values="0 0 0 0 0 0 0 0 0 0 0 0 0 0 0 0 0 0 127 0" result="hardAlpha"/>
<feOffset dy="-1"/>
<feGaussianBlur stdDeviation="0.375"/>
<feComposite in2="hardAlpha" operator="arithmetic" k2="-1" k3="1"/>
<feColorMatrix type="matrix" values="0 0 0 0 0 0 0 0 0 0 0 0 0 0 0 0 0 0 0.2 0"/>
<feBlend mode="normal" in2="shape" result="effect1_innerShadow_1709_59176"/>
</filter>
<filter id="filter1_i_1709_59176" x="3.64966" y="2.60417" width="19.5164" height="22.6074" filterUnits="userSpaceOnUse" color-interpolation-filters="sRGB">
<feFlood flood-opacity="0" result="BackgroundImageFix"/>
<feBlend mode="normal" in="SourceGraphic" in2="BackgroundImageFix" result="shape"/>
<feColorMatrix in="SourceAlpha" type="matrix" values="0 0 0 0 0 0 0 0 0 0 0 0 0 0 0 0 0 0 127 0" result="hardAlpha"/>
<feOffset dy="1"/>
<feGaussianBlur stdDeviation="0.5"/>
<feComposite in2="hardAlpha" operator="arithmetic" k2="-1" k3="1"/>
<feColorMatrix type="matrix" values="0 0 0 0 0.796078 0 0 0 0 0.654902 0 0 0 0 0 0 0 0 0.65 0"/>
<feBlend mode="normal" in2="shape" result="effect1_innerShadow_1709_59176"/>
</filter>
<filter id="filter2_d_1709_59176" x="5.50159" y="5.6097" width="15.8668" height="15.8669" filterUnits="userSpaceOnUse" color-interpolation-filters="sRGB">
<feFlood flood-opacity="0" result="BackgroundImageFix"/>
<feColorMatrix in="SourceAlpha" type="matrix" values="0 0 0 0 0 0 0 0 0 0 0 0 0 0 0 0 0 0 127 0" result="hardAlpha"/>
<feOffset/>
<feGaussianBlur stdDeviation="1.5"/>
<feComposite in2="hardAlpha" operator="out"/>
<feColorMatrix type="matrix" values="0 0 0 0 0.6125 0 0 0 0 0.508858 0 0 0 0 0.028073 0 0 0 0.8 0"/>
<feBlend mode="normal" in2="BackgroundImageFix" result="effect1_dropShadow_1709_59176"/>
<feBlend mode="normal" in="SourceGraphic" in2="effect1_dropShadow_1709_59176" result="shape"/>
</filter>
<clipPath id="clip0_1709_59176">
<rect width="26.8158" height="26.8158" fill="white"/>
</clipPath>
</defs>
</svg>
