<svg width="471" height="260" viewBox="0 0 471 260" fill="none" xmlns="http://www.w3.org/2000/svg">
<g opacity="0.2">
<g filter="url(#filter0_b_1045_28282)">
<rect y="204" width="471" height="56" rx="12" fill="#0085EA" fill-opacity="0.1"/>
<rect x="130.5" y="224.5" width="63" height="15" rx="3.5" fill="#00508C" fill-opacity="0.4"/>
<rect x="130.5" y="224.5" width="63" height="15" rx="3.5" stroke="url(#paint0_linear_1045_28282)"/>
<rect x="218.5" y="224.5" width="63" height="15" rx="3.5" fill="#00508C" fill-opacity="0.4"/>
<rect x="218.5" y="224.5" width="63" height="15" rx="3.5" stroke="url(#paint1_linear_1045_28282)"/>
<rect x="306.5" y="224.5" width="63" height="15" rx="3.5" fill="#00508C" fill-opacity="0.4"/>
<rect x="306.5" y="224.5" width="63" height="15" rx="3.5" stroke="url(#paint2_linear_1045_28282)"/>
<rect x="394.5" y="224.5" width="63" height="15" rx="3.5" fill="#00508C" fill-opacity="0.4"/>
<rect x="394.5" y="224.5" width="63" height="15" rx="3.5" stroke="url(#paint3_linear_1045_28282)"/>
<rect x="42.5" y="217.5" width="63" height="15" rx="3.5" fill="#00508C" fill-opacity="0.4"/>
<rect x="42.5" y="217.5" width="63" height="15" rx="3.5" stroke="url(#paint4_linear_1045_28282)"/>
<rect x="42.5" y="237.5" width="35" height="8" rx="1.5" fill="#00508C" fill-opacity="0.4"/>
<rect x="42.5" y="237.5" width="35" height="8" rx="1.5" stroke="url(#paint5_linear_1045_28282)"/>
<rect x="16.5" y="223.5" width="17" height="17" rx="3.5" fill="#00508C" fill-opacity="0.4" stroke="url(#paint6_linear_1045_28282)"/>
<rect x="0.5" y="204.5" width="470" height="55" rx="11.5" stroke="#00508C"/>
</g>
</g>
<g opacity="0.4">
<g filter="url(#filter1_b_1045_28282)">
<rect y="153" width="471" height="56" rx="12" fill="#0085EA" fill-opacity="0.1"/>
<rect x="130.5" y="173.5" width="63" height="15" rx="3.5" fill="#00508C" fill-opacity="0.4"/>
<rect x="130.5" y="173.5" width="63" height="15" rx="3.5" stroke="url(#paint7_linear_1045_28282)"/>
<rect x="218.5" y="173.5" width="63" height="15" rx="3.5" fill="#00508C" fill-opacity="0.4"/>
<rect x="218.5" y="173.5" width="63" height="15" rx="3.5" stroke="url(#paint8_linear_1045_28282)"/>
<rect x="306.5" y="173.5" width="63" height="15" rx="3.5" fill="#00508C" fill-opacity="0.4"/>
<rect x="306.5" y="173.5" width="63" height="15" rx="3.5" stroke="url(#paint9_linear_1045_28282)"/>
<rect x="394.5" y="173.5" width="63" height="15" rx="3.5" fill="#00508C" fill-opacity="0.4"/>
<rect x="394.5" y="173.5" width="63" height="15" rx="3.5" stroke="url(#paint10_linear_1045_28282)"/>
<rect x="42.5" y="166.5" width="63" height="15" rx="3.5" fill="#00508C" fill-opacity="0.4"/>
<rect x="42.5" y="166.5" width="63" height="15" rx="3.5" stroke="url(#paint11_linear_1045_28282)"/>
<rect x="42.5" y="186.5" width="35" height="8" rx="1.5" fill="#00508C" fill-opacity="0.4"/>
<rect x="42.5" y="186.5" width="35" height="8" rx="1.5" stroke="url(#paint12_linear_1045_28282)"/>
<rect x="16.5" y="172.5" width="17" height="17" rx="3.5" fill="#00508C" fill-opacity="0.4" stroke="url(#paint13_linear_1045_28282)"/>
<rect x="0.5" y="153.5" width="470" height="55" rx="11.5" stroke="#00508C"/>
</g>
</g>
<g opacity="0.6">
<g filter="url(#filter2_b_1045_28282)">
<rect y="102" width="471" height="56" rx="12" fill="#0085EA" fill-opacity="0.1"/>
<rect x="130.5" y="122.5" width="63" height="15" rx="3.5" fill="#00508C" fill-opacity="0.4"/>
<rect x="130.5" y="122.5" width="63" height="15" rx="3.5" stroke="url(#paint14_linear_1045_28282)"/>
<rect x="218.5" y="122.5" width="63" height="15" rx="3.5" fill="#00508C" fill-opacity="0.4"/>
<rect x="218.5" y="122.5" width="63" height="15" rx="3.5" stroke="url(#paint15_linear_1045_28282)"/>
<rect x="306.5" y="122.5" width="63" height="15" rx="3.5" fill="#00508C" fill-opacity="0.4"/>
<rect x="306.5" y="122.5" width="63" height="15" rx="3.5" stroke="url(#paint16_linear_1045_28282)"/>
<rect x="394.5" y="122.5" width="63" height="15" rx="3.5" fill="#00508C" fill-opacity="0.4"/>
<rect x="394.5" y="122.5" width="63" height="15" rx="3.5" stroke="url(#paint17_linear_1045_28282)"/>
<rect x="42.5" y="115.5" width="63" height="15" rx="3.5" fill="#00508C" fill-opacity="0.4"/>
<rect x="42.5" y="115.5" width="63" height="15" rx="3.5" stroke="url(#paint18_linear_1045_28282)"/>
<rect x="42.5" y="135.5" width="35" height="8" rx="1.5" fill="#00508C" fill-opacity="0.4"/>
<rect x="42.5" y="135.5" width="35" height="8" rx="1.5" stroke="url(#paint19_linear_1045_28282)"/>
<rect x="16.5" y="121.5" width="17" height="17" rx="3.5" fill="#00508C" fill-opacity="0.4" stroke="url(#paint20_linear_1045_28282)"/>
<rect x="0.5" y="102.5" width="470" height="55" rx="11.5" stroke="#00508C"/>
</g>
</g>
<g opacity="0.8">
<g filter="url(#filter3_b_1045_28282)">
<rect y="51" width="471" height="56" rx="12" fill="#0085EA" fill-opacity="0.1"/>
<rect x="130.5" y="71.5" width="63" height="15" rx="3.5" fill="#00508C" fill-opacity="0.4"/>
<rect x="130.5" y="71.5" width="63" height="15" rx="3.5" stroke="url(#paint21_linear_1045_28282)"/>
<rect x="218.5" y="71.5" width="63" height="15" rx="3.5" fill="#00508C" fill-opacity="0.4"/>
<rect x="218.5" y="71.5" width="63" height="15" rx="3.5" stroke="url(#paint22_linear_1045_28282)"/>
<rect x="306.5" y="71.5" width="63" height="15" rx="3.5" fill="#00508C" fill-opacity="0.4"/>
<rect x="306.5" y="71.5" width="63" height="15" rx="3.5" stroke="url(#paint23_linear_1045_28282)"/>
<rect x="394.5" y="71.5" width="63" height="15" rx="3.5" fill="#00508C" fill-opacity="0.4"/>
<rect x="394.5" y="71.5" width="63" height="15" rx="3.5" stroke="url(#paint24_linear_1045_28282)"/>
<rect x="42.5" y="64.5" width="63" height="15" rx="3.5" fill="#00508C" fill-opacity="0.4"/>
<rect x="42.5" y="64.5" width="63" height="15" rx="3.5" stroke="url(#paint25_linear_1045_28282)"/>
<rect x="42.5" y="84.5" width="35" height="8" rx="1.5" fill="#00508C" fill-opacity="0.4"/>
<rect x="42.5" y="84.5" width="35" height="8" rx="1.5" stroke="url(#paint26_linear_1045_28282)"/>
<rect x="16.5" y="70.5" width="17" height="17" rx="3.5" fill="#00508C" fill-opacity="0.4" stroke="url(#paint27_linear_1045_28282)"/>
<rect x="0.5" y="51.5" width="470" height="55" rx="11.5" stroke="#00508C"/>
</g>
</g>
<g filter="url(#filter4_b_1045_28282)">
<rect width="471" height="56" rx="12" fill="#0085EA" fill-opacity="0.1"/>
<rect x="130.5" y="20.5" width="63" height="15" rx="3.5" fill="#00508C" fill-opacity="0.4"/>
<rect x="130.5" y="20.5" width="63" height="15" rx="3.5" stroke="url(#paint28_linear_1045_28282)"/>
<rect x="218.5" y="20.5" width="63" height="15" rx="3.5" fill="#00508C" fill-opacity="0.4"/>
<rect x="218.5" y="20.5" width="63" height="15" rx="3.5" stroke="url(#paint29_linear_1045_28282)"/>
<rect x="306.5" y="20.5" width="63" height="15" rx="3.5" fill="#00508C" fill-opacity="0.4"/>
<rect x="306.5" y="20.5" width="63" height="15" rx="3.5" stroke="url(#paint30_linear_1045_28282)"/>
<rect x="394.5" y="20.5" width="63" height="15" rx="3.5" fill="#00508C" fill-opacity="0.4"/>
<rect x="394.5" y="20.5" width="63" height="15" rx="3.5" stroke="url(#paint31_linear_1045_28282)"/>
<rect x="42.5" y="13.5" width="63" height="15" rx="3.5" fill="#00508C" fill-opacity="0.4"/>
<rect x="42.5" y="13.5" width="63" height="15" rx="3.5" stroke="url(#paint32_linear_1045_28282)"/>
<rect x="42.5" y="33.5" width="35" height="8" rx="1.5" fill="#00508C" fill-opacity="0.4"/>
<rect x="42.5" y="33.5" width="35" height="8" rx="1.5" stroke="url(#paint33_linear_1045_28282)"/>
<rect x="16.5" y="19.5" width="17" height="17" rx="3.5" fill="#00508C" fill-opacity="0.4" stroke="url(#paint34_linear_1045_28282)"/>
<rect x="0.5" y="0.5" width="470" height="55" rx="11.5" stroke="#00508C"/>
</g>
<defs>
<filter id="filter0_b_1045_28282" x="-17" y="187" width="505" height="90" filterUnits="userSpaceOnUse" color-interpolation-filters="sRGB">
<feFlood flood-opacity="0" result="BackgroundImageFix"/>
<feGaussianBlur in="BackgroundImageFix" stdDeviation="8.5"/>
<feComposite in2="SourceAlpha" operator="in" result="effect1_backgroundBlur_1045_28282"/>
<feBlend mode="normal" in="SourceGraphic" in2="effect1_backgroundBlur_1045_28282" result="shape"/>
</filter>
<filter id="filter1_b_1045_28282" x="-17" y="136" width="505" height="90" filterUnits="userSpaceOnUse" color-interpolation-filters="sRGB">
<feFlood flood-opacity="0" result="BackgroundImageFix"/>
<feGaussianBlur in="BackgroundImageFix" stdDeviation="8.5"/>
<feComposite in2="SourceAlpha" operator="in" result="effect1_backgroundBlur_1045_28282"/>
<feBlend mode="normal" in="SourceGraphic" in2="effect1_backgroundBlur_1045_28282" result="shape"/>
</filter>
<filter id="filter2_b_1045_28282" x="-17" y="85" width="505" height="90" filterUnits="userSpaceOnUse" color-interpolation-filters="sRGB">
<feFlood flood-opacity="0" result="BackgroundImageFix"/>
<feGaussianBlur in="BackgroundImageFix" stdDeviation="8.5"/>
<feComposite in2="SourceAlpha" operator="in" result="effect1_backgroundBlur_1045_28282"/>
<feBlend mode="normal" in="SourceGraphic" in2="effect1_backgroundBlur_1045_28282" result="shape"/>
</filter>
<filter id="filter3_b_1045_28282" x="-17" y="34" width="505" height="90" filterUnits="userSpaceOnUse" color-interpolation-filters="sRGB">
<feFlood flood-opacity="0" result="BackgroundImageFix"/>
<feGaussianBlur in="BackgroundImageFix" stdDeviation="8.5"/>
<feComposite in2="SourceAlpha" operator="in" result="effect1_backgroundBlur_1045_28282"/>
<feBlend mode="normal" in="SourceGraphic" in2="effect1_backgroundBlur_1045_28282" result="shape"/>
</filter>
<filter id="filter4_b_1045_28282" x="-17" y="-17" width="505" height="90" filterUnits="userSpaceOnUse" color-interpolation-filters="sRGB">
<feFlood flood-opacity="0" result="BackgroundImageFix"/>
<feGaussianBlur in="BackgroundImageFix" stdDeviation="8.5"/>
<feComposite in2="SourceAlpha" operator="in" result="effect1_backgroundBlur_1045_28282"/>
<feBlend mode="normal" in="SourceGraphic" in2="effect1_backgroundBlur_1045_28282" result="shape"/>
</filter>
<linearGradient id="paint0_linear_1045_28282" x1="162" y1="224" x2="162" y2="240" gradientUnits="userSpaceOnUse">
<stop stop-color="#00508C"/>
<stop offset="1" stop-color="#0085EA" stop-opacity="0"/>
</linearGradient>
<linearGradient id="paint1_linear_1045_28282" x1="250" y1="224" x2="250" y2="240" gradientUnits="userSpaceOnUse">
<stop stop-color="#00508C"/>
<stop offset="1" stop-color="#0085EA" stop-opacity="0"/>
</linearGradient>
<linearGradient id="paint2_linear_1045_28282" x1="338" y1="224" x2="338" y2="240" gradientUnits="userSpaceOnUse">
<stop stop-color="#00508C"/>
<stop offset="1" stop-color="#0085EA" stop-opacity="0"/>
</linearGradient>
<linearGradient id="paint3_linear_1045_28282" x1="426" y1="224" x2="426" y2="240" gradientUnits="userSpaceOnUse">
<stop stop-color="#00508C"/>
<stop offset="1" stop-color="#0085EA" stop-opacity="0"/>
</linearGradient>
<linearGradient id="paint4_linear_1045_28282" x1="74" y1="217" x2="74" y2="233" gradientUnits="userSpaceOnUse">
<stop stop-color="#00508C"/>
<stop offset="1" stop-color="#0085EA" stop-opacity="0"/>
</linearGradient>
<linearGradient id="paint5_linear_1045_28282" x1="60" y1="237" x2="60" y2="246" gradientUnits="userSpaceOnUse">
<stop stop-color="#00508C"/>
<stop offset="1" stop-color="#0085EA" stop-opacity="0"/>
</linearGradient>
<linearGradient id="paint6_linear_1045_28282" x1="25" y1="223" x2="25" y2="241" gradientUnits="userSpaceOnUse">
<stop stop-color="#00508C"/>
<stop offset="1" stop-color="#0085EA" stop-opacity="0"/>
</linearGradient>
<linearGradient id="paint7_linear_1045_28282" x1="162" y1="173" x2="162" y2="189" gradientUnits="userSpaceOnUse">
<stop stop-color="#00508C"/>
<stop offset="1" stop-color="#0085EA" stop-opacity="0"/>
</linearGradient>
<linearGradient id="paint8_linear_1045_28282" x1="250" y1="173" x2="250" y2="189" gradientUnits="userSpaceOnUse">
<stop stop-color="#00508C"/>
<stop offset="1" stop-color="#0085EA" stop-opacity="0"/>
</linearGradient>
<linearGradient id="paint9_linear_1045_28282" x1="338" y1="173" x2="338" y2="189" gradientUnits="userSpaceOnUse">
<stop stop-color="#00508C"/>
<stop offset="1" stop-color="#0085EA" stop-opacity="0"/>
</linearGradient>
<linearGradient id="paint10_linear_1045_28282" x1="426" y1="173" x2="426" y2="189" gradientUnits="userSpaceOnUse">
<stop stop-color="#00508C"/>
<stop offset="1" stop-color="#0085EA" stop-opacity="0"/>
</linearGradient>
<linearGradient id="paint11_linear_1045_28282" x1="74" y1="166" x2="74" y2="182" gradientUnits="userSpaceOnUse">
<stop stop-color="#00508C"/>
<stop offset="1" stop-color="#0085EA" stop-opacity="0"/>
</linearGradient>
<linearGradient id="paint12_linear_1045_28282" x1="60" y1="186" x2="60" y2="195" gradientUnits="userSpaceOnUse">
<stop stop-color="#00508C"/>
<stop offset="1" stop-color="#0085EA" stop-opacity="0"/>
</linearGradient>
<linearGradient id="paint13_linear_1045_28282" x1="25" y1="172" x2="25" y2="190" gradientUnits="userSpaceOnUse">
<stop stop-color="#00508C"/>
<stop offset="1" stop-color="#0085EA" stop-opacity="0"/>
</linearGradient>
<linearGradient id="paint14_linear_1045_28282" x1="162" y1="122" x2="162" y2="138" gradientUnits="userSpaceOnUse">
<stop stop-color="#00508C"/>
<stop offset="1" stop-color="#0085EA" stop-opacity="0"/>
</linearGradient>
<linearGradient id="paint15_linear_1045_28282" x1="250" y1="122" x2="250" y2="138" gradientUnits="userSpaceOnUse">
<stop stop-color="#00508C"/>
<stop offset="1" stop-color="#0085EA" stop-opacity="0"/>
</linearGradient>
<linearGradient id="paint16_linear_1045_28282" x1="338" y1="122" x2="338" y2="138" gradientUnits="userSpaceOnUse">
<stop stop-color="#00508C"/>
<stop offset="1" stop-color="#0085EA" stop-opacity="0"/>
</linearGradient>
<linearGradient id="paint17_linear_1045_28282" x1="426" y1="122" x2="426" y2="138" gradientUnits="userSpaceOnUse">
<stop stop-color="#00508C"/>
<stop offset="1" stop-color="#0085EA" stop-opacity="0"/>
</linearGradient>
<linearGradient id="paint18_linear_1045_28282" x1="74" y1="115" x2="74" y2="131" gradientUnits="userSpaceOnUse">
<stop stop-color="#00508C"/>
<stop offset="1" stop-color="#0085EA" stop-opacity="0"/>
</linearGradient>
<linearGradient id="paint19_linear_1045_28282" x1="60" y1="135" x2="60" y2="144" gradientUnits="userSpaceOnUse">
<stop stop-color="#00508C"/>
<stop offset="1" stop-color="#0085EA" stop-opacity="0"/>
</linearGradient>
<linearGradient id="paint20_linear_1045_28282" x1="25" y1="121" x2="25" y2="139" gradientUnits="userSpaceOnUse">
<stop stop-color="#00508C"/>
<stop offset="1" stop-color="#0085EA" stop-opacity="0"/>
</linearGradient>
<linearGradient id="paint21_linear_1045_28282" x1="162" y1="71" x2="162" y2="87" gradientUnits="userSpaceOnUse">
<stop stop-color="#00508C"/>
<stop offset="1" stop-color="#0085EA" stop-opacity="0"/>
</linearGradient>
<linearGradient id="paint22_linear_1045_28282" x1="250" y1="71" x2="250" y2="87" gradientUnits="userSpaceOnUse">
<stop stop-color="#00508C"/>
<stop offset="1" stop-color="#0085EA" stop-opacity="0"/>
</linearGradient>
<linearGradient id="paint23_linear_1045_28282" x1="338" y1="71" x2="338" y2="87" gradientUnits="userSpaceOnUse">
<stop stop-color="#00508C"/>
<stop offset="1" stop-color="#0085EA" stop-opacity="0"/>
</linearGradient>
<linearGradient id="paint24_linear_1045_28282" x1="426" y1="71" x2="426" y2="87" gradientUnits="userSpaceOnUse">
<stop stop-color="#00508C"/>
<stop offset="1" stop-color="#0085EA" stop-opacity="0"/>
</linearGradient>
<linearGradient id="paint25_linear_1045_28282" x1="74" y1="64" x2="74" y2="80" gradientUnits="userSpaceOnUse">
<stop stop-color="#00508C"/>
<stop offset="1" stop-color="#0085EA" stop-opacity="0"/>
</linearGradient>
<linearGradient id="paint26_linear_1045_28282" x1="60" y1="84" x2="60" y2="93" gradientUnits="userSpaceOnUse">
<stop stop-color="#00508C"/>
<stop offset="1" stop-color="#0085EA" stop-opacity="0"/>
</linearGradient>
<linearGradient id="paint27_linear_1045_28282" x1="25" y1="70" x2="25" y2="88" gradientUnits="userSpaceOnUse">
<stop stop-color="#00508C"/>
<stop offset="1" stop-color="#0085EA" stop-opacity="0"/>
</linearGradient>
<linearGradient id="paint28_linear_1045_28282" x1="162" y1="20" x2="162" y2="36" gradientUnits="userSpaceOnUse">
<stop stop-color="#00508C"/>
<stop offset="1" stop-color="#0085EA" stop-opacity="0"/>
</linearGradient>
<linearGradient id="paint29_linear_1045_28282" x1="250" y1="20" x2="250" y2="36" gradientUnits="userSpaceOnUse">
<stop stop-color="#00508C"/>
<stop offset="1" stop-color="#0085EA" stop-opacity="0"/>
</linearGradient>
<linearGradient id="paint30_linear_1045_28282" x1="338" y1="20" x2="338" y2="36" gradientUnits="userSpaceOnUse">
<stop stop-color="#00508C"/>
<stop offset="1" stop-color="#0085EA" stop-opacity="0"/>
</linearGradient>
<linearGradient id="paint31_linear_1045_28282" x1="426" y1="20" x2="426" y2="36" gradientUnits="userSpaceOnUse">
<stop stop-color="#00508C"/>
<stop offset="1" stop-color="#0085EA" stop-opacity="0"/>
</linearGradient>
<linearGradient id="paint32_linear_1045_28282" x1="74" y1="13" x2="74" y2="29" gradientUnits="userSpaceOnUse">
<stop stop-color="#00508C"/>
<stop offset="1" stop-color="#0085EA" stop-opacity="0"/>
</linearGradient>
<linearGradient id="paint33_linear_1045_28282" x1="60" y1="33" x2="60" y2="42" gradientUnits="userSpaceOnUse">
<stop stop-color="#00508C"/>
<stop offset="1" stop-color="#0085EA" stop-opacity="0"/>
</linearGradient>
<linearGradient id="paint34_linear_1045_28282" x1="25" y1="19" x2="25" y2="37" gradientUnits="userSpaceOnUse">
<stop stop-color="#00508C"/>
<stop offset="1" stop-color="#0085EA" stop-opacity="0"/>
</linearGradient>
</defs>
</svg>
